<?xml version="1.0" standalone="no"?>
<!DOCTYPE svg PUBLIC "-//W3C//DTD SVG 20010904//EN"
 "http://www.w3.org/TR/2001/REC-SVG-20010904/DTD/svg10.dtd">
<svg version="1.0" xmlns="http://www.w3.org/2000/svg"
 width="2227.000000pt" height="658.000000pt" viewBox="0 0 2227.000000 658.000000"
 preserveAspectRatio="xMidYMid meet">

<g transform="translate(0.000000,658.000000) scale(0.100000,-0.100000)"
fill="#750D37" stroke="none">
<path d="M14332 5949 c-380 -45 -804 -319 -1137 -734 -70 -86 -224 -319 -293
-441 -79 -138 -213 -422 -280 -589 -87 -216 -187 -516 -317 -951 -226 -751
-323 -997 -500 -1264 -97 -147 -69 -139 -295 -75 -441 125 -781 165 -957 111
-135 -42 -207 -137 -207 -271 0 -161 117 -271 351 -331 405 -103 1029 -2 1386
223 l38 24 122 -25 c67 -14 199 -41 292 -61 291 -62 392 -76 565 -82 188 -6
290 10 436 66 216 84 488 337 669 623 17 26 32 47 35 48 3 0 11 -46 18 -101
13 -115 54 -243 103 -326 77 -130 219 -248 351 -294 80 -28 215 -31 307 -6
154 42 328 155 488 320 91 93 94 95 165 112 127 30 186 65 309 183 199 190
436 490 888 1125 117 163 214 297 217 297 6 0 -24 -59 -381 -750 -205 -397
-322 -633 -339 -687 -82 -262 -7 -488 192 -581 51 -24 69 -27 162 -27 88 1
117 5 178 27 167 60 315 178 465 368 53 69 285 383 514 698 229 314 418 570
420 568 2 -2 -26 -54 -63 -116 -190 -322 -334 -791 -334 -1086 0 -166 33 -272
107 -349 97 -100 298 -129 448 -65 204 87 428 340 720 813 60 97 110 175 112
173 2 -1 -19 -52 -46 -112 -189 -414 -152 -749 95 -870 197 -96 480 -18 708
196 76 71 219 261 754 995 189 259 349 479 357 489 22 29 31 13 57 -104 21
-96 23 -129 23 -400 0 -326 -11 -432 -66 -660 -52 -219 -152 -390 -265 -456
-57 -33 -134 -41 -205 -21 -62 19 -172 84 -166 100 2 6 33 22 69 37 129 53
178 99 178 170 -1 49 -30 110 -73 147 -91 79 -217 42 -294 -87 -27 -44 -33
-65 -33 -110 0 -146 149 -285 370 -347 89 -24 299 -24 390 1 90 24 211 84 298
146 158 112 389 358 517 551 108 162 150 269 107 269 -26 0 -53 -32 -206 -253
-76 -109 -140 -196 -142 -194 -2 2 0 48 6 103 32 346 -113 740 -422 1147 l-60
78 50 57 c93 108 106 170 48 228 -54 54 -126 43 -169 -25 -19 -31 -22 -51 -24
-144 l-1 -109 -223 -311 c-739 -1033 -804 -1121 -907 -1219 -138 -132 -289
-219 -393 -226 -51 -4 -59 -2 -90 26 -33 30 -34 32 -34 109 1 62 8 97 34 173
77 219 262 604 565 1174 102 193 184 352 181 354 -6 7 -617 -30 -640 -38 -14
-5 -44 -61 -99 -181 -203 -449 -484 -953 -678 -1215 -233 -313 -476 -463 -582
-358 -13 14 -27 36 -30 50 -23 92 150 504 539 1282 l232 462 -41 0 c-118 -1
-619 -38 -625 -47 -3 -5 -78 -110 -167 -234 -89 -123 -268 -377 -399 -564
-412 -588 -498 -700 -631 -825 -199 -187 -371 -226 -415 -93 -15 46 -7 161 17
233 23 69 406 830 758 1505 l265 510 273 5 c150 3 279 9 286 13 18 12 15 35
-7 47 -12 6 -115 10 -266 10 -195 0 -246 3 -243 13 2 7 88 176 191 376 104
200 186 365 183 368 -5 5 -430 -24 -471 -32 -15 -3 -73 -106 -230 -406 -236
-452 -232 -446 -685 -1019 -366 -462 -507 -654 -679 -924 -59 -93 -159 -196
-241 -251 -67 -45 -208 -111 -217 -102 -2 3 12 26 31 52 83 108 178 304 245
503 87 261 94 494 20 649 -49 101 -158 185 -284 218 -76 19 -257 19 -350 0
-246 -52 -476 -179 -678 -374 -182 -176 -300 -356 -361 -549 -29 -91 -64 -149
-229 -368 -232 -310 -372 -435 -579 -517 -128 -52 -188 -61 -383 -61 -203 1
-276 12 -663 104 -118 27 -216 50 -219 50 -12 0 9 22 93 98 176 157 309 336
420 566 62 130 170 436 229 653 l28 102 91 31 c520 182 1063 589 1425 1070
266 352 424 724 450 1060 20 244 -29 423 -146 532 -107 101 -291 150 -481 127z
m256 -95 c115 -47 172 -175 172 -385 0 -254 -90 -564 -259 -895 -273 -531
-696 -966 -1183 -1215 -131 -67 -291 -132 -296 -120 -1 4 38 172 87 372 190
772 299 1113 476 1474 221 455 472 702 780 770 83 18 178 18 223 -1z m1127
-2523 c107 -48 157 -162 157 -356 -1 -544 -418 -1265 -801 -1386 -74 -23 -189
-28 -236 -10 -47 19 -93 70 -112 125 -63 182 56 642 262 1012 245 441 436 634
624 634 42 0 80 -7 106 -19z m-4738 -1401 c106 -19 469 -105 608 -146 31 -8
53 -19 50 -24 -3 -5 -42 -36 -86 -69 -276 -209 -728 -284 -968 -162 -177 91
-207 278 -58 365 99 59 250 70 454 36z"/>
<path d="M7425 4921 c-98 -49 -224 -148 -294 -233 -62 -75 -134 -215 -152
-293 -7 -32 -17 -54 -23 -51 -220 93 -379 148 -387 134 -19 -30 -69 -201 -80
-269 -14 -93 -6 -229 21 -334 26 -101 94 -240 159 -325 27 -36 46 -66 42 -68
-5 -1 -134 15 -287 37 -468 68 -1006 123 -1469 151 -93 6 -420 13 -725 16
l-555 6 -245 88 c-572 206 -821 278 -1275 369 -420 84 -695 121 -888 120 -156
0 -201 -11 -205 -51 -3 -25 1 -28 50 -43 36 -10 129 -19 288 -26 429 -18 659
-47 955 -121 165 -41 639 -194 895 -289 l145 -54 -725 -9 c-755 -9 -1110 -1
-1370 29 -411 49 -601 137 -576 269 11 60 100 127 219 165 37 12 37 13 37 67
0 62 13 60 -130 22 -212 -56 -420 -218 -420 -328 0 -148 317 -241 995 -290
241 -18 1154 -24 1682 -11 l482 12 233 -95 c993 -402 1395 -616 2208 -1172
325 -222 427 -303 586 -467 307 -315 439 -546 714 -1252 81 -208 127 -283 200
-324 l41 -23 -25 49 c-13 28 -43 110 -66 184 -157 516 -465 1116 -713 1389
-153 169 -443 392 -911 702 -385 256 -475 308 -944 553 -292 152 -349 178
-772 352 -140 57 -257 106 -260 110 -3 3 144 3 325 0 344 -5 507 -17 1031 -77
450 -52 1261 -166 1277 -180 4 -4 -20 -24 -53 -44 -65 -40 -200 -163 -200
-183 0 -12 203 -144 315 -204 143 -77 334 -138 483 -154 53 -6 62 -10 57 -24
-4 -9 -12 -46 -18 -83 -8 -55 -7 -83 7 -154 21 -107 68 -225 110 -272 28 -32
33 -34 78 -29 162 20 334 94 416 180 l52 56 87 -88 c105 -103 219 -182 374
-255 118 -55 346 -142 354 -134 15 15 37 203 32 283 -5 90 -41 223 -73 272 -8
12 -14 26 -14 30 0 4 69 8 153 8 115 1 169 5 222 19 165 44 311 126 424 237
63 63 164 196 159 210 -4 11 -243 166 -300 195 l-48 24 49 61 c65 81 104 156
137 264 24 79 27 108 28 235 1 169 -13 245 -47 253 -196 46 -353 59 -467 37
-29 -6 -55 -8 -57 -6 -2 2 1 43 7 91 20 164 -18 402 -102 635 l-35 95 -35 -2
c-57 -3 -300 -88 -408 -142 -125 -63 -197 -110 -270 -178 l-57 -53 -19 42
c-31 69 -92 157 -152 221 -69 72 -169 157 -185 157 -7 0 -48 -18 -92 -39z
m184 -143 c82 -80 149 -176 181 -258 l21 -53 -35 -66 c-19 -36 -44 -95 -56
-131 -11 -36 -23 -71 -25 -78 -3 -8 -33 23 -74 75 -37 49 -90 112 -117 141
l-49 53 -105 -94 c-58 -52 -144 -135 -192 -184 l-87 -91 -12 50 c-7 30 -10 89
-7 147 4 78 11 110 35 168 67 158 200 298 368 387 33 18 52 23 64 17 9 -5 49
-42 90 -83z m1010 -40 c52 -156 72 -262 78 -413 6 -164 -7 -237 -62 -347 -68
-134 -199 -278 -254 -278 -25 0 -35 9 -74 73 -26 40 -71 107 -101 149 l-55 75
-53 -4 c-29 -3 -91 -11 -138 -19 -130 -22 -130 -22 -167 43 -18 31 -33 64 -33
73 0 36 51 193 84 258 71 140 183 242 374 340 73 38 338 139 369 142 1 0 15
-42 32 -92z m-1887 -392 c131 -47 217 -92 227 -119 4 -12 11 -45 15 -74 4 -29
13 -71 21 -94 l15 -42 -62 -96 c-71 -109 -124 -231 -142 -328 l-12 -66 -36 44
c-129 159 -191 327 -191 519 0 127 35 290 62 290 6 0 52 -15 103 -34z m775
-68 c141 -177 247 -341 305 -477 30 -70 33 -84 32 -181 -1 -159 -36 -291 -119
-440 -54 -98 -134 -265 -158 -332 -7 -21 -15 -18 -204 72 -225 107 -372 233
-440 377 -87 182 -39 403 140 648 59 79 365 395 384 395 5 0 32 -28 60 -62z
m1677 -271 c32 -8 62 -21 67 -28 13 -22 22 -155 14 -226 -19 -178 -80 -318
-185 -424 -57 -58 -150 -121 -150 -103 0 4 9 55 20 113 20 104 51 353 46 359
-7 7 -347 23 -394 19 l-53 -6 39 47 c47 57 114 158 132 201 12 31 23 36 135
65 37 9 269 -3 329 -17z m-994 -207 c40 -60 72 -112 69 -114 -2 -2 -35 -13
-74 -24 -84 -25 -151 -66 -215 -132 l-47 -49 5 112 c4 105 3 118 -25 199 l-30
87 71 11 c39 6 78 13 86 14 8 2 31 4 50 5 35 1 38 -3 110 -109z m713 -177 c7
-12 -30 -262 -53 -361 -57 -242 -136 -408 -250 -524 -160 -162 -353 -197 -612
-109 -102 35 -296 132 -326 164 l-21 23 43 96 c96 212 223 425 323 537 90 103
186 146 373 170 83 11 517 13 523 4z m-2087 -290 c3 -10 22 -52 41 -93 28 -58
55 -94 122 -161 47 -47 116 -105 153 -128 66 -43 67 -43 51 -67 -8 -13 -25
-25 -37 -25 -83 -5 -207 15 -318 51 -88 29 -267 119 -367 183 l-83 54 63 51
c82 67 161 108 251 132 93 24 117 25 124 3z m2292 -163 c24 -11 93 -52 153
-91 l109 -71 -46 -60 c-137 -177 -404 -307 -633 -308 l-64 0 46 49 c80 86 149
207 201 355 l24 69 73 37 c41 21 79 38 84 39 6 0 29 -8 53 -19z m-1420 -496
c34 -19 62 -38 62 -41 0 -3 -16 -39 -35 -78 -58 -121 -153 -191 -316 -234
-138 -36 -122 -40 -157 38 -83 186 -83 320 0 457 l31 51 176 -79 c97 -44 204
-95 239 -114z m292 -131 c135 -43 287 -54 395 -29 45 11 62 12 68 3 19 -26 47
-97 62 -152 16 -63 21 -251 7 -273 -17 -25 -302 100 -447 197 -75 49 -222 190
-243 231 -10 19 -10 33 -3 53 l10 27 53 -21 c29 -12 73 -28 98 -36z"/>
<path d="M5258 3047 c194 -98 224 -110 242 -99 24 15 55 15 81 1 28 -14 56 -3
62 26 5 28 21 22 -193 75 -69 17 -187 49 -262 71 -75 21 -140 39 -145 38 -4 0
92 -50 215 -112z"/>
<path d="M5675 2979 c-12 -19 5 -23 22 -6 16 16 16 17 1 17 -9 0 -20 -5 -23
-11z"/>
<path d="M11611 2929 c-113 -27 -274 -61 -358 -76 -124 -22 -150 -29 -141 -40
8 -10 8 -20 0 -38 -12 -25 -7 -55 8 -55 8 0 412 141 625 219 61 22 101 40 90
39 -11 0 -112 -22 -224 -49z"/>
<path d="M11940 2940 c-227 -70 -933 -311 -1072 -366 -253 -100 -455 -199
-608 -299 -185 -120 -399 -353 -858 -935 -187 -238 -231 -289 -436 -504 -186
-196 -409 -404 -539 -502 -54 -41 -91 -74 -83 -74 40 0 201 97 321 193 302
242 533 488 1116 1187 283 339 493 522 746 649 83 41 402 176 601 253 59 23
289 103 511 177 l405 136 17 50 c20 56 23 75 12 74 -5 0 -64 -18 -133 -39z"/>
<path d="M5743 2960 c-29 -12 -30 -43 -2 -81 19 -27 22 -28 43 -14 25 16 49
12 79 -13 16 -14 17 -12 17 25 0 29 -6 46 -24 62 -26 25 -80 35 -113 21z"/>
<path d="M5528 2933 c6 -2 18 -2 25 0 6 3 1 5 -13 5 -14 0 -19 -2 -12 -5z"/>
<path d="M5640 2917 c0 -2 13 -13 30 -25 l30 -22 -12 25 c-6 14 -19 25 -30 25
-10 0 -18 -1 -18 -3z"/>
<path d="M5927 2903 c-4 -3 -7 -17 -7 -31 l0 -25 20 26 c11 14 20 28 20 31 0
8 -25 8 -33 -1z"/>
<path d="M5560 2897 c14 -14 113 -67 127 -67 27 0 -61 59 -98 66 -19 4 -32 4
-29 1z"/>
<path d="M6133 2873 c9 -9 20 -13 24 -9 4 4 1 11 -7 16 -25 16 -35 11 -17 -7z"/>
<path d="M6188 2863 c3 -15 15 -35 26 -45 18 -14 19 -20 9 -37 -7 -11 -13 -28
-13 -36 0 -8 6 -15 13 -15 6 0 24 -7 40 -14 30 -16 32 -14 15 13 -17 27 5 51
48 51 18 0 36 5 39 10 8 13 51 13 76 -1 29 -15 57 -3 57 26 0 14 -3 25 -7 25
-3 0 -71 11 -151 25 -80 14 -148 25 -151 25 -3 0 -4 -12 -1 -27z"/>
<path d="M5986 2859 c-34 -27 -33 -36 5 -44 18 -4 35 -16 41 -31 13 -27 22
-29 66 -13 55 19 50 63 -12 93 -45 21 -68 20 -100 -5z"/>
<path d="M5800 2832 c0 -20 29 -52 47 -52 19 0 22 27 7 49 -19 26 -54 28 -54
3z"/>
<path d="M6530 2815 c0 -9 6 -12 15 -9 8 4 15 10 15 15 0 5 -7 9 -15 9 -8 0
-15 -7 -15 -15z"/>
<path d="M6176 2794 c-4 -10 -1 -14 6 -12 15 5 23 28 10 28 -5 0 -13 -7 -16
-16z"/>
<path d="M6586 2791 c-20 -22 -16 -43 14 -81 15 -20 21 -23 31 -12 18 17 45
15 74 -4 l25 -16 0 44 c0 42 -2 45 -45 66 -56 27 -77 28 -99 3z"/>
<path d="M10978 2803 c6 -2 18 -2 25 0 6 3 1 5 -13 5 -14 0 -19 -2 -12 -5z"/>
<path d="M11060 2785 c0 -8 7 -15 15 -15 8 0 15 7 15 15 0 8 -7 15 -15 15 -8
0 -15 -7 -15 -15z"/>
<path d="M5940 2764 c0 -23 3 -25 33 -22 24 2 33 8 35 26 3 19 -1 22 -32 22
-32 0 -36 -3 -36 -26z"/>
<path d="M6388 2773 c6 -2 18 -2 25 0 6 3 1 5 -13 5 -14 0 -19 -2 -12 -5z"/>
<path d="M10723 2771 c-56 -10 -73 -26 -73 -72 0 -44 8 -48 35 -19 19 21 60
27 70 10 4 -6 11 -8 16 -4 9 5 49 78 49 89 0 6 -42 5 -97 -4z"/>
<path d="M10854 2755 c-24 -37 -12 -40 21 -5 22 23 25 30 12 30 -9 0 -24 -11
-33 -25z"/>
<path d="M10940 2759 c-14 -6 -40 -24 -58 -42 -33 -32 -33 -32 -10 -38 14 -3
22 -12 22 -22 -1 -9 -1 -17 0 -17 22 0 106 45 121 64 34 47 -12 81 -75 55z"/>
<path d="M6305 2749 c-4 -6 -4 -13 -1 -16 8 -8 36 5 36 17 0 13 -27 13 -35 -1z"/>
<path d="M6500 2753 c1 -10 50 -47 50 -38 0 17 -22 45 -35 45 -8 0 -15 -3 -15
-7z"/>
<path d="M5840 2746 c0 -2 6 -9 14 -15 10 -9 15 -8 20 4 4 10 -1 15 -14 15
-11 0 -20 -2 -20 -4z"/>
<path d="M6115 2740 c-15 -7 -10 -9 23 -9 23 -1 42 4 42 9 0 12 -37 12 -65 0z"/>
<path d="M10420 2731 l-125 -16 3 -29 c2 -17 -4 -37 -16 -50 -30 -33 -35 -56
-13 -56 11 0 26 -3 35 -6 12 -5 16 1 16 23 0 35 18 54 80 83 25 11 56 27 70
35 14 8 36 13 50 10 14 -2 36 2 50 10 l25 14 -25 -1 c-14 0 -81 -8 -150 -17z"/>
<path d="M5900 2726 c0 -10 8 -16 22 -16 12 0 19 1 17 3 -2 1 -12 9 -21 16
-15 12 -18 11 -18 -3z"/>
<path d="M6380 2722 c-23 -19 -23 -20 -7 -46 16 -24 48 -42 106 -61 19 -6 21
-4 16 18 -6 21 -2 26 20 34 l27 9 -36 28 c-49 37 -94 44 -126 18z"/>
<path d="M6770 2713 c0 -14 1 -24 3 -22 1 2 11 14 21 27 19 22 19 22 -2 22
-17 0 -22 -6 -22 -27z"/>
<path d="M11066 2721 c-4 -7 -5 -15 -2 -18 9 -9 19 4 14 18 -4 11 -6 11 -12 0z"/>
<path d="M6827 2688 l-32 -32 34 -7 c34 -7 51 -23 51 -47 0 -14 22 -10 70 12
52 24 31 69 -43 91 l-49 15 -31 -32z"/>
<path d="M10575 2710 c-4 -7 2 -22 14 -34 l22 -21 -3 29 c-3 31 -21 45 -33 26z"/>
<path d="M6230 2700 c8 -5 20 -10 25 -10 6 0 3 5 -5 10 -8 5 -19 10 -25 10 -5
0 -3 -5 5 -10z"/>
<path d="M6108 2680 c21 -20 22 -23 7 -40 -14 -16 -12 -18 41 -33 87 -25 119
2 71 59 -20 22 -34 28 -83 32 l-59 4 23 -22z"/>
<path d="M10124 2684 c-17 -8 -46 -31 -65 -50 l-33 -34 33 0 c30 0 33 -2 29
-25 -6 -27 -1 -26 75 22 90 57 56 134 -39 87z"/>
<path d="M10466 2691 c-4 -5 3 -7 14 -4 23 6 26 13 6 13 -8 0 -17 -4 -20 -9z"/>
<path d="M5935 2680 c3 -5 10 -10 16 -10 5 0 9 5 9 10 0 6 -7 10 -16 10 -8 0
-12 -4 -9 -10z"/>
<path d="M6005 2681 c-7 -13 27 -31 59 -31 35 0 40 15 10 29 -30 13 -61 14
-69 2z"/>
<path d="M6310 2682 c0 -12 19 -26 26 -19 2 2 -2 10 -11 17 -9 8 -15 8 -15 2z"/>
<path d="M6657 2683 c-21 -20 18 -83 42 -68 17 10 13 40 -7 58 -20 19 -26 20
-35 10z"/>
<path d="M10033 2673 c-3 -10 -8 -22 -11 -28 -3 -5 7 1 21 14 31 28 32 31 12
31 -9 0 -18 -8 -22 -17z"/>
<path d="M9863 2673 c-26 -5 -39 -40 -29 -78 l6 -24 36 24 c27 19 41 22 54 15
10 -6 21 -10 24 -10 7 0 36 56 36 70 0 10 -81 12 -127 3z"/>
<path d="M10692 2657 c-23 -25 -29 -52 -12 -62 14 -9 62 42 58 62 -5 26 -22
26 -46 0z"/>
<path d="M9613 2657 c-79 -5 -140 -13 -137 -18 3 -5 0 -17 -5 -28 -8 -14 -7
-20 4 -25 21 -8 19 -30 -5 -51 -27 -24 -25 -42 5 -49 29 -7 41 -5 37 8 -8 24
11 54 45 72 20 10 53 29 73 42 24 16 43 22 63 18 17 -4 37 0 53 10 22 15 33
36 17 32 -5 0 -72 -5 -150 -11z"/>
<path d="M10249 2648 c-12 -23 -12 -23 10 -4 23 21 26 26 11 26 -5 0 -15 -10
-21 -22z"/>
<path d="M10477 2655 c-41 -14 -73 -39 -89 -69 -14 -26 6 -42 60 -49 36 -4 42
-3 42 14 0 23 38 59 62 59 23 0 23 13 1 32 -30 25 -37 27 -76 13z"/>
<path d="M6280 2645 c0 -18 19 -40 26 -32 4 4 0 15 -9 24 -9 10 -17 13 -17 8z"/>
<path d="M10364 2636 c-10 -8 -16 -17 -13 -20 3 -4 17 2 30 13 27 23 13 28
-17 7z"/>
<path d="M10806 2629 c-15 -12 -25 -23 -23 -26 7 -6 73 23 81 36 12 19 -30 12
-58 -10z"/>
<path d="M6529 2621 c11 -21 63 -45 83 -39 21 7 -38 58 -67 58 -22 0 -24 -3
-16 -19z"/>
<path d="M9412 2628 c5 -15 28 -18 29 -3 0 6 -7 12 -17 13 -10 3 -15 -1 -12
-10z"/>
<path d="M6331 2614 c0 -11 3 -14 6 -6 3 7 2 16 -1 19 -3 4 -6 -2 -5 -13z"/>
<path d="M6793 2623 c-7 -2 -13 -16 -13 -29 0 -19 5 -24 24 -24 28 0 51 24 42
45 -5 15 -29 18 -53 8z"/>
<path d="M6385 2609 c-8 -12 17 -21 47 -17 21 3 20 4 -9 15 -20 7 -35 8 -38 2z"/>
<path d="M9750 2608 c0 -7 11 -20 23 -30 23 -16 23 -16 19 13 -3 20 -10 29
-23 29 -11 0 -19 -6 -19 -12z"/>
<path d="M9276 2569 c-53 -46 -61 -65 -28 -64 19 0 27 -6 31 -23 l6 -24 49 34
c27 18 54 41 60 51 17 26 -5 51 -47 55 -28 2 -43 -3 -71 -29z"/>
<path d="M6965 2581 c-17 -7 -16 -9 9 -15 31 -8 42 -3 31 13 -7 12 -12 13 -40
2z"/>
<path d="M9875 2564 c-18 -28 -14 -54 9 -54 20 0 50 46 42 65 -8 23 -32 18
-51 -11z"/>
<path d="M10175 2569 c-28 -19 -28 -20 -5 -13 34 9 70 34 50 34 -8 0 -28 -9
-45 -21z"/>
<path d="M10532 2581 c-22 -14 -10 -46 19 -49 29 -3 54 20 45 43 -6 16 -43 20
-64 6z"/>
<path d="M6150 2575 c0 -2 14 -11 30 -20 18 -9 30 -11 30 -5 0 6 -12 15 -26
20 -29 11 -34 12 -34 5z"/>
<path d="M6255 2570 c-3 -5 -1 -10 4 -10 6 0 11 5 11 10 0 6 -2 10 -4 10 -3 0
-8 -4 -11 -10z"/>
<path d="M6330 2570 c0 -5 4 -10 9 -10 6 0 13 5 16 10 3 6 -1 10 -9 10 -9 0
-16 -4 -16 -10z"/>
<path d="M6690 2565 c12 -15 30 -12 30 6 0 5 -10 9 -21 9 -18 0 -19 -2 -9 -15z"/>
<path d="M10018 2564 c-39 -21 -62 -64 -34 -64 20 0 76 49 76 66 0 17 -8 17
-42 -2z"/>
<path d="M6646 2562 c-3 -6 1 -13 10 -16 23 -9 28 -2 10 13 -8 7 -17 8 -20 3z"/>
<path d="M9205 2559 c-11 -17 1 -21 15 -4 8 9 8 15 2 15 -6 0 -14 -5 -17 -11z"/>
<path d="M9436 2554 c-4 -10 -1 -14 6 -12 15 5 23 28 10 28 -5 0 -13 -7 -16
-16z"/>
<path d="M9660 2559 c-35 -14 -80 -59 -80 -81 0 -21 36 -38 79 -38 23 0 30 5
34 29 5 21 15 32 43 43 l36 15 -27 21 c-30 24 -47 26 -85 11z"/>
<path d="M6295 2550 c-3 -5 -15 -10 -25 -10 -26 0 -35 -18 -17 -38 8 -9 16
-22 18 -29 5 -14 214 -163 229 -163 13 0 13 17 0 25 -5 3 -10 14 -10 24 0 22
-24 44 -52 48 -11 2 -34 14 -50 28 -16 14 -33 25 -37 25 -4 0 -17 9 -29 20
-16 15 -20 27 -15 50 5 30 0 39 -12 20z"/>
<path d="M6383 2544 c-10 -25 13 -60 51 -78 31 -14 43 -15 72 -6 l35 12 -26
20 c-20 16 -25 26 -21 44 6 23 4 24 -49 24 -41 0 -57 -4 -62 -16z"/>
<path d="M6740 2546 c0 -9 7 -12 21 -9 16 4 17 8 7 14 -19 13 -28 11 -28 -5z"/>
<path d="M10240 2556 c0 -9 30 -14 35 -6 4 6 -3 10 -14 10 -12 0 -21 -2 -21
-4z"/>
<path d="M10322 2548 c2 -6 10 -14 16 -16 7 -2 10 2 6 12 -7 18 -28 22 -22 4z"/>
<path d="M9550 2535 c-20 -24 -6 -28 15 -5 10 11 13 20 8 20 -6 0 -16 -7 -23
-15z"/>
<path d="M6525 2530 c-16 -25 46 -50 72 -29 12 11 11 14 -9 25 -28 16 -55 18
-63 4z"/>
<path d="M9141 2531 c-8 -6 -9 -11 -3 -15 6 -3 14 -1 17 5 9 14 2 20 -14 10z"/>
<path d="M6640 2520 c0 -15 21 -23 32 -12 6 6 2 11 -11 15 -12 3 -21 1 -21 -3z"/>
<path d="M6933 2519 c20 -11 22 -40 5 -57 -8 -8 -4 -14 18 -23 51 -19 95 -23
90 -8 -3 8 -10 33 -16 57 l-11 42 -52 0 c-40 -1 -48 -3 -34 -11z"/>
<path d="M10138 2514 c-44 -13 -47 -16 -35 -35 10 -18 8 -23 -16 -45 l-28 -24
50 0 c42 0 56 5 86 31 27 24 35 39 33 58 -4 32 -25 36 -90 15z"/>
<path d="M6330 2512 c0 -5 7 -15 15 -22 8 -7 15 -8 15 -2 0 5 -7 15 -15 22 -8
7 -15 8 -15 2z"/>
<path d="M6770 2511 c0 -5 7 -11 15 -15 9 -3 15 0 15 9 0 8 -7 15 -15 15 -8 0
-15 -4 -15 -9z"/>
<path d="M6841 2511 c-22 -14 30 -44 63 -35 31 7 32 12 9 30 -21 15 -52 18
-72 5z"/>
<path d="M10360 2500 c-22 -14 -7 -21 29 -14 23 5 29 9 19 15 -17 11 -29 11
-48 -1z"/>
<path d="M9069 2476 c-9 -20 -9 -29 1 -41 12 -14 15 -14 32 2 23 20 20 56 -4
61 -11 2 -22 -6 -29 -22z"/>
<path d="M9737 2493 c-28 -7 -18 -47 13 -51 37 -3 58 13 44 35 -12 19 -28 24
-57 16z"/>
<path d="M10260 2480 c-7 -13 -7 -20 -1 -20 6 0 15 9 21 20 7 13 7 20 1 20 -6
0 -15 -9 -21 -20z"/>
<path d="M6676 2481 c-3 -5 1 -11 9 -15 9 -3 15 0 15 9 0 16 -16 20 -24 6z"/>
<path d="M9223 2479 c-25 -9 -59 -56 -49 -67 10 -9 56 19 73 45 17 25 7 34
-24 22z"/>
<path d="M9355 2469 l-30 -20 30 7 c17 4 39 13 50 20 19 14 19 14 0 13 -11 0
-33 -9 -50 -20z"/>
<path d="M6765 2470 c3 -5 14 -10 23 -10 15 0 15 2 2 10 -20 13 -33 13 -25 0z"/>
<path d="M9865 2471 c-10 -17 12 -21 25 -6 10 12 10 15 -3 15 -9 0 -18 -4 -22
-9z"/>
<path d="M9912 2460 c-11 -18 -10 -19 13 -8 13 6 22 15 19 19 -8 14 -18 11
-32 -11z"/>
<path d="M6730 2460 c0 -5 5 -10 11 -10 5 0 7 5 4 10 -3 6 -8 10 -11 10 -2 0
-4 -4 -4 -10z"/>
<path d="M8866 2461 c-59 -5 -70 -9 -77 -28 -12 -33 11 -54 63 -60 45 -5 47
-5 50 23 2 23 10 31 35 40 26 8 30 13 21 22 -7 7 -14 11 -17 10 -4 -1 -37 -4
-75 -7z"/>
<path d="M9526 2461 c-4 -7 -5 -15 -2 -18 9 -9 19 4 14 18 -4 11 -6 11 -12 0z"/>
<path d="M10008 2456 c-22 -16 -23 -36 -3 -36 22 0 75 29 75 40 0 15 -52 12
-72 -4z"/>
<path d="M10415 2465 c-5 -2 -22 -6 -37 -9 -36 -8 -88 -53 -88 -77 0 -18 5
-17 61 14 69 39 113 89 64 72z"/>
<path d="M8660 2451 c0 -11 46 -42 53 -35 3 3 3 14 0 25 -5 19 -53 29 -53 10z"/>
<path d="M9440 2456 c0 -2 7 -6 15 -10 8 -3 15 -1 15 4 0 6 -7 10 -15 10 -8 0
-15 -2 -15 -4z"/>
<path d="M6624 2435 c-9 -23 3 -45 25 -45 25 0 34 14 26 40 -7 23 -43 27 -51
5z"/>
<path d="M9816 2435 c-19 -15 -19 -15 2 -15 13 0 22 6 22 15 0 18 0 18 -24 0z"/>
<path d="M6521 2431 c-14 -4 -26 -12 -29 -19 -6 -19 23 -14 43 8 10 11 16 20
14 19 -2 -1 -15 -4 -28 -8z"/>
<path d="M6820 2425 c0 -14 46 -55 61 -55 15 0 10 26 -8 42 -27 23 -53 30 -53
13z"/>
<path d="M9933 2433 c-18 -7 -16 -23 2 -23 8 0 15 7 15 15 0 8 -1 15 -2 14 -2
0 -9 -3 -15 -6z"/>
<path d="M9321 2416 c-27 -10 -31 -14 -18 -19 23 -9 21 -26 -5 -54 l-21 -23
49 0 c52 0 83 17 104 58 24 47 -31 66 -109 38z"/>
<path d="M6567 2402 c-24 -27 -21 -50 12 -83 32 -32 75 -39 85 -13 13 33 6 60
-15 61 -25 2 -49 21 -49 39 0 19 -14 17 -33 -4z"/>
<path d="M8930 2410 c-13 -8 -12 -12 6 -31 28 -27 67 -18 62 14 -3 24 -42 34
-68 17z"/>
<path d="M6740 2387 c0 -25 17 -47 37 -47 19 0 16 34 -5 53 -25 23 -32 21 -32
-6z"/>
<path d="M6979 2390 c13 -11 30 -20 38 -20 23 0 6 17 -29 29 l-33 11 24 -20z"/>
<path d="M9471 2392 c-7 -13 -11 -26 -8 -28 8 -8 29 25 25 38 -3 8 -9 4 -17
-10z"/>
<path d="M9555 2400 c-7 -12 29 -12 65 0 21 7 19 8 -17 9 -23 1 -45 -3 -48 -9z"/>
<path d="M10185 2400 c-3 -6 1 -7 9 -4 18 7 21 14 7 14 -6 0 -13 -4 -16 -10z"/>
<path d="M10215 2390 c-10 -11 -23 -20 -30 -20 -19 0 -45 -34 -45 -59 0 -12
-11 -32 -25 -45 -29 -27 -31 -36 -9 -36 26 0 107 71 96 82 -13 13 -5 36 21 65
11 13 18 25 15 28 -2 3 -13 -4 -23 -15z"/>
<path d="M6914 2378 c1 -15 -7 -24 -24 -28 l-24 -6 34 -36 c43 -45 72 -55 94
-32 28 27 5 73 -52 106 -28 17 -28 17 -28 -4z"/>
<path d="M8726 2391 c-3 -5 1 -11 9 -15 9 -3 15 0 15 9 0 16 -16 20 -24 6z"/>
<path d="M9088 2393 c-20 -5 -24 -18 -9 -28 6 -3 15 4 21 15 6 11 9 19 8 19
-2 -1 -11 -3 -20 -6z"/>
<path d="M9506 2383 c-6 -14 -5 -15 5 -6 7 7 10 15 7 18 -3 3 -9 -2 -12 -12z"/>
<path d="M9790 2384 c0 -14 3 -15 18 -3 9 7 19 15 21 16 2 2 -5 3 -17 3 -14 0
-22 -6 -22 -16z"/>
<path d="M9125 2379 c-10 -15 3 -25 16 -12 7 7 7 13 1 17 -6 3 -14 1 -17 -5z"/>
<path d="M9890 2380 c0 -13 11 -13 30 0 12 8 11 10 -7 10 -13 0 -23 -4 -23
-10z"/>
<path d="M9216 2365 c-20 -15 -14 -35 12 -35 21 0 62 27 62 41 0 14 -53 10
-74 -6z"/>
<path d="M9615 2371 c-64 -16 -109 -55 -103 -93 4 -32 47 -35 98 -7 38 22 52
39 30 39 -16 0 -12 32 7 52 17 19 15 20 -32 9z"/>
<path d="M9670 2355 l-23 -25 22 0 c25 0 81 29 81 42 0 19 -58 6 -80 -17z"/>
<path d="M10074 2365 c24 -18 59 -20 54 -2 -3 6 -20 13 -39 15 -32 2 -33 1
-15 -13z"/>
<path d="M9022 2355 c-11 -13 -9 -15 12 -15 18 0 24 4 20 15 -8 19 -15 18 -32
0z"/>
<path d="M9813 2363 c-15 -5 -17 -23 -4 -23 5 0 11 7 15 15 3 8 4 15 3 14 -1
0 -8 -3 -14 -6z"/>
<path d="M9850 2355 c-10 -12 -10 -15 4 -15 9 0 16 7 16 15 0 8 -2 15 -4 15
-2 0 -9 -7 -16 -15z"/>
<path d="M10230 2350 c-9 -16 -8 -20 5 -20 8 0 15 9 15 20 0 11 -2 20 -5 20
-2 0 -9 -9 -15 -20z"/>
<path d="M7058 2354 c-4 -5 0 -18 8 -29 15 -20 17 -12 5 19 -4 11 -10 15 -13
10z"/>
<path d="M9930 2334 c0 -22 4 -25 28 -22 19 2 28 9 30 26 3 19 -1 22 -27 22
-27 0 -31 -4 -31 -26z"/>
<path d="M8780 2340 c-24 -15 -6 -21 36 -11 21 5 31 9 22 10 -9 1 -22 3 -30 6
-7 3 -20 1 -28 -5z"/>
<path d="M9135 2340 c-3 -5 1 -10 9 -10 9 0 16 5 16 10 0 6 -4 10 -9 10 -6 0
-13 -4 -16 -10z"/>
<path d="M9490 2340 c-8 -5 -12 -12 -9 -15 4 -3 12 1 19 10 14 17 11 19 -10 5z"/>
<path d="M10006 2325 c-4 -15 -18 -31 -34 -37 -15 -7 -28 -13 -30 -14 -2 -1 0
-13 3 -27 9 -33 29 -40 65 -22 55 29 77 85 43 111 -27 20 -40 17 -47 -11z"/>
<path d="M6740 2308 c0 -34 36 -87 64 -94 47 -12 58 17 31 82 -13 31 -17 34
-35 24 -14 -8 -26 -8 -40 0 -17 9 -20 8 -20 -12z"/>
<path d="M7037 2309 c4 -13 8 -18 11 -10 2 7 -1 18 -6 23 -8 8 -9 4 -5 -13z"/>
<path d="M6698 2303 c-3 -13 -2 -26 4 -29 14 -9 16 -2 8 26 -6 25 -6 25 -12 3z"/>
<path d="M7757 2309 c7 -7 15 -10 18 -7 3 3 -2 9 -12 12 -14 6 -15 5 -6 -5z"/>
<path d="M9003 2306 c0 -11 5 -13 19 -5 10 5 18 12 18 14 0 3 -8 5 -18 5 -10
0 -19 -7 -19 -14z"/>
<path d="M8827 2299 c-58 -14 -77 -27 -77 -55 0 -31 17 -64 32 -64 7 0 31 10
55 21 41 20 43 23 29 38 -20 22 -20 30 1 53 18 20 16 20 -40 7z"/>
<path d="M8902 2294 c-12 -8 -22 -19 -22 -25 0 -17 57 -9 74 10 15 17 15 19 1
25 -24 9 -28 8 -53 -10z"/>
<path d="M9110 2295 c0 -9 5 -15 11 -13 6 2 11 8 11 13 0 5 -5 11 -11 13 -6 2
-11 -4 -11 -13z"/>
<path d="M9440 2302 c0 -6 -10 -14 -22 -18 -39 -11 -58 -34 -52 -63 4 -19 0
-32 -15 -45 -26 -24 -27 -36 -2 -36 11 0 23 -5 26 -10 4 -6 11 -8 16 -4 6 3
21 3 35 0 17 -5 24 -13 24 -31 0 -16 6 -25 16 -25 25 0 67 38 69 63 1 12 4 29
6 37 3 12 -4 14 -28 12 -19 -2 -33 1 -33 8 0 6 -11 15 -25 20 -34 13 -41 35
-20 66 9 14 14 28 11 32 -3 3 -6 0 -6 -6z"/>
<path d="M9725 2285 c-27 -26 -32 -45 -12 -45 17 1 42 21 56 48 10 18 9 22 -4
22 -9 0 -27 -11 -40 -25z"/>
<path d="M9826 2283 c-18 -37 -6 -67 18 -43 19 19 25 61 9 67 -6 2 -19 -9 -27
-24z"/>
<path d="M7065 2280 c-21 -23 -21 -22 23 -44 l33 -17 -16 38 c-20 47 -19 47
-40 23z"/>
<path d="M10100 2289 c0 -5 5 -7 10 -4 6 3 10 8 10 11 0 2 -4 4 -10 4 -5 0
-10 -5 -10 -11z"/>
<path d="M6528 2283 c7 -3 16 -2 19 1 4 3 -2 6 -13 5 -11 0 -14 -3 -6 -6z"/>
<path d="M6870 2282 c0 -5 7 -15 15 -22 8 -7 15 -8 15 -2 0 5 -7 15 -15 22 -8
7 -15 8 -15 2z"/>
<path d="M9031 2281 c-8 -5 -10 -14 -6 -21 6 -9 10 -8 17 4 12 21 7 28 -11 17z"/>
<path d="M9070 2270 c-9 -16 -8 -18 5 -14 8 4 15 12 15 20 0 20 -7 17 -20 -6z"/>
<path d="M9296 2275 c21 -16 54 -20 54 -6 0 9 -33 21 -59 21 -11 0 -9 -4 5
-15z"/>
<path d="M9162 2271 c-23 -14 -10 -46 21 -49 23 -3 27 0 27 21 0 14 -7 28 -16
31 -19 7 -16 8 -32 -3z"/>
<path d="M9455 2267 c-4 -10 -5 -21 -1 -24 10 -10 18 4 13 24 -4 17 -4 17 -12
0z"/>
<path d="M7770 2255 c14 -16 40 -20 40 -6 0 9 -24 21 -42 21 -6 0 -6 -6 2 -15z"/>
<path d="M7698 2238 c-2 -15 -11 -24 -25 -26 -29 -4 -29 -8 3 -49 18 -23 33
-33 53 -33 58 0 69 55 20 101 -37 35 -47 36 -51 7z"/>
<path d="M9232 2235 c-7 -14 -23 -30 -37 -35 -29 -11 -31 -18 -9 -48 20 -29
59 -28 89 3 31 30 32 69 3 89 -30 21 -33 20 -46 -9z"/>
<path d="M6681 2231 c-8 -14 -6 -23 10 -37 13 -12 19 -27 16 -41 -4 -21 16
-48 51 -68 11 -6 12 -3 4 11 -14 28 -4 44 29 44 37 0 30 15 -16 34 -18 8 -36
24 -40 35 -3 12 -15 26 -25 31 -15 8 -21 6 -29 -9z"/>
<path d="M7015 2240 c-3 -6 1 -7 9 -4 18 7 21 14 7 14 -6 0 -13 -4 -16 -10z"/>
<path d="M9598 2234 c-16 -8 -28 -19 -28 -24 0 -17 16 -11 40 15 27 29 25 30
-12 9z"/>
<path d="M9630 2213 c-38 -47 -38 -86 1 -91 21 -2 35 6 63 39 41 48 45 63 15
54 -15 -5 -22 -2 -26 14 -8 29 -17 26 -53 -16z"/>
<path d="M6957 2229 c7 -7 15 -10 18 -7 3 3 -2 9 -12 12 -14 6 -15 5 -6 -5z"/>
<path d="M7837 2228 c-2 -7 1 -23 6 -35 8 -18 6 -27 -8 -43 -10 -11 -16 -21
-14 -23 29 -21 62 -37 76 -37 27 0 63 -28 63 -49 0 -25 37 -33 66 -14 19 12
22 18 13 30 -7 7 -9 16 -6 20 4 3 -8 17 -26 29 -64 47 -80 59 -106 84 -48 46
-59 52 -64 38z"/>
<path d="M9848 2218 c-22 -18 -30 -19 -42 -9 -13 11 -17 9 -27 -15 -21 -56
-22 -81 -4 -87 18 -7 69 15 81 35 6 9 24 100 20 97 -1 0 -13 -10 -28 -21z"/>
<path d="M6909 2228 c-1 -2 -3 -12 -4 -23 -2 -11 -6 -27 -10 -37 -7 -17 26
-35 45 -23 14 9 13 58 -2 73 -11 11 -26 16 -29 10z"/>
<path d="M8957 2212 c-18 -19 -23 -52 -9 -52 14 0 52 40 52 55 0 21 -24 19
-43 -3z"/>
<path d="M9061 2212 c-15 -28 -14 -62 2 -62 8 0 19 12 26 27 10 21 9 29 -3 41
-12 13 -15 12 -25 -6z"/>
<path d="M6750 2216 c0 -2 8 -10 18 -17 15 -13 16 -12 3 4 -13 16 -21 21 -21
13z"/>
<path d="M7050 2210 c0 -5 9 -10 21 -10 11 0 17 5 14 10 -3 6 -13 10 -21 10
-8 0 -14 -4 -14 -10z"/>
<path d="M9330 2204 c0 -8 5 -12 10 -9 6 4 8 11 5 16 -9 14 -15 11 -15 -7z"/>
<path d="M9508 2213 c7 -3 16 -2 19 1 4 3 -2 6 -13 5 -11 0 -14 -3 -6 -6z"/>
<path d="M9904 2207 c-8 -21 2 -35 16 -21 5 5 6 15 0 24 -8 12 -10 12 -16 -3z"/>
<path d="M10070 2195 c-7 -8 -8 -15 -2 -15 5 0 15 7 22 15 7 8 8 15 2 15 -5 0
-15 -7 -22 -15z"/>
<path d="M6980 2174 c0 -14 3 -14 15 -4 8 7 15 14 15 16 0 2 -7 4 -15 4 -8 0
-15 -7 -15 -16z"/>
<path d="M7810 2174 c0 -8 5 -12 10 -9 6 4 8 11 5 16 -9 14 -15 11 -15 -7z"/>
<path d="M8882 2156 c-25 -29 -32 -45 -30 -69 3 -28 7 -32 35 -35 32 -3 38 3
86 84 4 7 -4 9 -23 6 -25 -4 -29 -1 -32 24 l-3 28 -33 -38z"/>
<path d="M9970 2180 c-9 -6 -10 -10 -3 -10 6 0 15 5 18 10 8 12 4 12 -15 0z"/>
<path d="M6665 2170 c3 -5 8 -10 11 -10 2 0 4 5 4 10 0 6 -5 10 -11 10 -5 0
-7 -4 -4 -10z"/>
<path d="M6820 2170 c0 -5 5 -10 10 -10 6 0 10 5 10 10 0 6 -4 10 -10 10 -5 0
-10 -4 -10 -10z"/>
<path d="M8832 2164 c-24 -16 -30 -37 -9 -28 11 4 42 44 34 44 -1 0 -13 -7
-25 -16z"/>
<path d="M7038 2160 c-24 -14 -23 -34 4 -81 20 -37 23 -38 40 -22 16 14 22 14
46 2 15 -7 30 -15 35 -17 18 -9 6 69 -15 93 -26 29 -83 42 -110 25z"/>
<path d="M7558 2146 c-42 -23 -45 -32 -22 -64 17 -25 56 -29 74 -7 12 15 7 81
-8 88 -4 2 -24 -6 -44 -17z"/>
<path d="M9722 2149 c-7 -11 -11 -23 -9 -25 7 -7 29 24 25 36 -2 6 -9 1 -16
-11z"/>
<path d="M9556 2145 c-3 -8 -1 -15 4 -15 6 0 10 7 10 15 0 8 -2 15 -4 15 -2 0
-6 -7 -10 -15z"/>
<path d="M9913 2153 c-7 -2 -13 -11 -13 -19 0 -8 -11 -26 -24 -39 -26 -26 -15
-38 20 -23 16 8 41 50 45 78 1 7 -15 9 -28 3z"/>
<path d="M7640 2143 c0 -5 7 -18 15 -29 12 -16 14 -16 15 -3 0 9 -7 22 -15 29
-8 7 -15 8 -15 3z"/>
<path d="M9082 2133 c-18 -12 -25 -13 -37 -3 -12 10 -16 9 -21 -5 -14 -35 -9
-87 8 -98 37 -24 98 55 80 103 -6 16 -9 16 -30 3z"/>
<path d="M9140 2135 c0 -28 16 -50 24 -36 4 6 0 21 -8 33 -15 21 -16 21 -16 3z"/>
<path d="M9970 2135 c-20 -24 -6 -28 15 -5 10 11 13 20 8 20 -6 0 -16 -7 -23
-15z"/>
<path d="M6858 2133 c6 -2 18 -2 25 0 6 3 1 5 -13 5 -14 0 -19 -2 -12 -5z"/>
<path d="M9279 2123 c-13 -16 -12 -17 4 -4 16 13 21 21 13 21 -2 0 -10 -8 -17
-17z"/>
<path d="M6787 2114 c-8 -8 1 -24 14 -24 5 0 9 7 9 15 0 15 -12 20 -23 9z"/>
<path d="M6960 2112 c0 -5 12 -18 27 -28 l28 -18 -16 24 c-17 26 -39 38 -39
22z"/>
<path d="M8770 2107 c0 -8 -3 -29 -7 -47 -4 -24 -3 -32 7 -28 14 4 22 76 8 84
-4 3 -8 -1 -8 -9z"/>
<path d="M9311 2106 c-10 -12 -8 -13 9 -9 25 7 37 23 17 23 -8 0 -20 -6 -26
-14z"/>
<path d="M6858 2090 c-41 -25 -10 -78 63 -109 l45 -19 -4 28 c-3 24 0 29 22
32 25 3 25 3 -14 36 -43 36 -86 48 -112 32z"/>
<path d="M7715 2090 c3 -5 11 -10 16 -10 6 0 7 5 4 10 -3 6 -11 10 -16 10 -6
0 -7 -4 -4 -10z"/>
<path d="M9208 2093 c7 -3 16 -2 19 1 4 3 -2 6 -13 5 -11 0 -14 -3 -6 -6z"/>
<path d="M9395 2090 c3 -5 10 -10 16 -10 5 0 9 5 9 10 0 6 -7 10 -16 10 -8 0
-12 -4 -9 -10z"/>
<path d="M9672 2077 c-17 -18 -21 -31 -16 -53 4 -22 0 -34 -15 -48 -24 -22
-28 -46 -7 -46 8 0 21 -3 30 -6 12 -5 16 1 16 23 0 33 20 56 63 72 16 6 26 15
22 21 -3 5 -12 7 -21 3 -10 -4 -19 4 -27 26 -14 37 -17 38 -45 8z"/>
<path d="M7815 2080 c-3 -5 3 -10 14 -10 12 0 21 5 21 10 0 6 -6 10 -14 10 -8
0 -18 -4 -21 -10z"/>
<path d="M9740 2080 c0 -5 5 -10 11 -10 5 0 7 5 4 10 -3 6 -8 10 -11 10 -2 0
-4 -4 -4 -10z"/>
<path d="M7449 2064 c-10 -12 -10 -19 -1 -32 23 -32 24 -43 9 -60 -19 -21 -11
-38 28 -58 36 -18 38 -18 25 6 -15 28 4 60 35 60 31 0 24 26 -9 34 -14 3 -29
19 -36 36 -14 33 -31 38 -51 14z"/>
<path d="M7663 2043 c-12 -41 -5 -54 27 -46 14 4 18 14 16 41 -2 51 -27 54
-43 5z"/>
<path d="M8800 2070 c0 -5 5 -10 10 -10 6 0 10 5 10 10 0 6 -4 10 -10 10 -5 0
-10 -4 -10 -10z"/>
<path d="M8967 2074 c-4 -4 -7 -14 -7 -23 0 -11 3 -12 11 -4 6 6 10 16 7 23
-2 6 -7 8 -11 4z"/>
<path d="M9163 2073 c-7 -2 -13 -12 -13 -22 0 -9 -9 -27 -20 -39 -13 -14 -16
-23 -9 -28 16 -9 59 17 59 36 0 9 5 21 11 27 20 20 0 38 -28 26z"/>
<path d="M9290 2054 c-39 -27 -50 -45 -50 -86 0 -21 2 -38 5 -38 3 0 19 10 36
22 25 19 33 20 49 10 17 -10 21 -8 35 19 9 17 15 42 13 57 -2 22 -9 28 -33 30
-16 1 -41 -5 -55 -14z"/>
<path d="M9780 2060 c0 -5 4 -10 9 -10 6 0 13 5 16 10 3 6 -1 10 -9 10 -9 0
-16 -4 -16 -10z"/>
<path d="M7281 2050 c-48 -11 -58 -33 -21 -43 21 -5 32 -16 37 -37 l8 -30 34
18 c49 24 59 44 38 76 -18 27 -36 30 -96 16z"/>
<path d="M7631 2044 c0 -11 3 -14 6 -6 3 7 2 16 -1 19 -3 4 -6 -2 -5 -13z"/>
<path d="M7910 2045 c7 -9 15 -13 17 -11 7 7 -7 26 -19 26 -6 0 -6 -6 2 -15z"/>
<path d="M9220 2045 c-7 -9 -11 -18 -8 -20 3 -3 11 1 18 10 7 9 11 18 8 20 -3
3 -11 -1 -18 -10z"/>
<path d="M9904 2049 c-7 -12 15 -31 28 -23 4 3 8 12 8 20 0 17 -26 19 -36 3z"/>
<path d="M7740 2034 c0 -8 5 -12 10 -9 6 3 10 10 10 16 0 5 -4 9 -10 9 -5 0
-10 -7 -10 -16z"/>
<path d="M9426 2035 c-9 -9 -16 -22 -16 -28 0 -6 10 -2 22 11 12 12 19 24 16
27 -3 3 -13 -1 -22 -10z"/>
<path d="M9816 2041 c-4 -5 3 -7 14 -4 23 6 26 13 6 13 -8 0 -17 -4 -20 -9z"/>
<path d="M7096 2023 c-4 -10 2 -25 15 -39 25 -27 39 -23 39 10 0 40 -41 63
-54 29z"/>
<path d="M7790 2020 c-24 -24 -24 -30 -5 -77 14 -34 16 -35 33 -19 23 20 46
21 62 1 18 -21 30 -2 30 47 0 27 -6 41 -22 52 -31 22 -74 20 -98 -4z"/>
<path d="M9106 2023 c-6 -14 -5 -15 5 -6 7 7 10 15 7 18 -3 3 -9 -2 -12 -12z"/>
<path d="M9480 2018 c-14 -13 -36 -35 -48 -49 l-22 -26 30 5 c25 4 30 1 30
-17 0 -29 11 -27 62 12 34 26 43 39 43 63 0 26 -4 29 -35 32 -25 2 -42 -4 -60
-20z"/>
<path d="M7578 2013 c7 -3 16 -2 19 1 4 3 -2 6 -13 5 -11 0 -14 -3 -6 -6z"/>
<path d="M8040 2010 c-8 -5 -10 -10 -5 -10 6 0 17 5 25 10 8 5 11 10 5 10 -5
0 -17 -5 -25 -10z"/>
<path d="M8776 2011 c-4 -5 3 -7 14 -4 23 6 26 13 6 13 -8 0 -17 -4 -20 -9z"/>
<path d="M8925 2000 c-16 -18 -17 -23 -5 -45 12 -22 11 -28 -8 -48 -27 -29
-28 -47 -3 -47 11 0 23 -5 26 -10 4 -6 11 -8 16 -4 5 3 7 10 3 15 -14 23 7 61
43 75 36 15 35 29 -2 36 -12 2 -21 13 -23 26 -4 27 -23 28 -47 2z"/>
<path d="M8990 2011 c0 -5 5 -13 10 -16 6 -3 10 -2 10 4 0 5 -4 13 -10 16 -5
3 -10 2 -10 -4z"/>
<path d="M7420 1995 c0 -8 5 -15 10 -15 6 0 10 7 10 15 0 8 -4 15 -10 15 -5 0
-10 -7 -10 -15z"/>
<path d="M9616 1994 c-5 -14 -4 -15 9 -4 17 14 19 20 6 20 -5 0 -12 -7 -15
-16z"/>
<path d="M9794 1990 c-35 -23 -59 -62 -51 -83 3 -8 18 -17 34 -20 23 -4 33 1
63 35 49 57 55 69 39 79 -22 14 -52 10 -85 -11z"/>
<path d="M6980 1991 c0 -13 59 -61 76 -61 11 0 11 5 3 24 -15 31 -79 62 -79
37z"/>
<path d="M9724 1986 c-10 -8 -16 -17 -13 -20 3 -3 14 3 24 14 21 23 17 26 -11
6z"/>
<path d="M7605 1980 c-8 -13 5 -13 25 0 13 8 13 10 -2 10 -9 0 -20 -4 -23 -10z"/>
<path d="M7950 1976 c0 -8 -3 -23 -6 -33 -4 -13 0 -11 15 7 25 30 26 40 6 40
-8 0 -15 -6 -15 -14z"/>
<path d="M9040 1980 c0 -5 4 -10 9 -10 6 0 13 5 16 10 3 6 -1 10 -9 10 -9 0
-16 -4 -16 -10z"/>
<path d="M7214 1966 c-8 -22 2 -46 20 -46 19 0 48 29 43 44 -6 18 -56 20 -63
2z"/>
<path d="M7702 1969 c2 -7 14 -19 26 -27 21 -14 22 -14 14 9 -9 24 -48 42 -40
18z"/>
<path d="M8184 1965 c-4 -9 -2 -21 5 -28 15 -15 14 -42 -3 -57 -18 -14 -11
-36 12 -44 9 -3 22 -8 28 -11 7 -4 11 7 10 32 -1 33 3 39 34 54 31 16 33 18
15 25 -11 4 -27 13 -35 19 -28 23 -60 28 -66 10z"/>
<path d="M8768 1969 c-23 -13 -41 -78 -27 -95 6 -7 8 -18 4 -24 -18 -29 67 21
90 53 19 27 19 42 -1 61 -18 18 -41 20 -66 5z"/>
<path d="M9165 1970 c-4 -6 -5 -12 -4 -13 2 -1 14 -10 26 -21 22 -18 22 -18
14 10 -8 30 -25 42 -36 24z"/>
<path d="M6866 1961 c5 -5 23 -12 39 -16 l30 -6 -25 15 c-28 17 -60 22 -44 7z"/>
<path d="M7990 1933 l-31 -38 31 -3 c22 -2 32 -10 36 -28 8 -30 11 -30 57 1
60 42 44 105 -28 105 -27 0 -40 -8 -65 -37z"/>
<path d="M7535 1949 c-4 -6 -5 -13 -2 -16 7 -7 27 6 27 18 0 12 -17 12 -25 -2z"/>
<path d="M7613 1940 c-12 -5 -25 -21 -29 -35 -8 -32 13 -57 69 -80 l37 -15 0
30 c0 23 5 31 25 36 25 6 25 7 8 26 -18 21 -66 48 -80 47 -4 0 -18 -4 -30 -9z"/>
<path d="M7370 1930 c-11 -7 -7 -10 17 -10 17 0 35 5 38 10 8 13 -35 13 -55 0z"/>
<path d="M8877 1919 c-4 -16 -3 -18 9 -8 16 13 19 29 5 29 -5 0 -11 -9 -14
-21z"/>
<path d="M9278 1916 c-6 -14 -7 -33 -4 -43 7 -16 10 -15 31 10 25 28 24 57 -1
57 -8 0 -19 -11 -26 -24z"/>
<path d="M7136 1915 c4 -8 7 -15 9 -15 2 0 5 7 9 15 3 9 0 15 -9 15 -9 0 -12
-6 -9 -15z"/>
<path d="M8157 1909 c-4 -16 -3 -18 9 -8 7 6 11 15 8 20 -8 13 -11 11 -17 -12z"/>
<path d="M8336 1921 c-3 -4 6 -6 19 -3 14 2 25 6 25 8 0 8 -39 4 -44 -5z"/>
<path d="M9062 1910 c-42 -26 -61 -65 -41 -84 8 -8 30 -17 50 -20 34 -6 37 -5
43 24 4 22 15 35 36 44 l30 12 -23 22 c-29 27 -53 28 -95 2z"/>
<path d="M9409 1915 c-14 -7 -31 -26 -37 -40 -12 -25 -11 -26 10 -20 27 8 58
41 58 61 0 17 1 17 -31 -1z"/>
<path d="M9544 1914 c-18 -14 -18 -15 6 -8 31 8 50 24 29 24 -8 0 -24 -7 -35
-16z"/>
<path d="M7096 1911 c-3 -5 1 -11 9 -15 8 -3 15 -1 15 4 0 13 -18 22 -24 11z"/>
<path d="M7180 1905 c0 -8 7 -15 16 -15 14 0 14 3 4 15 -7 8 -14 15 -16 15 -2
0 -4 -7 -4 -15z"/>
<path d="M8993 1913 c-7 -3 -13 -12 -13 -21 0 -15 2 -15 17 1 18 18 16 27 -4
20z"/>
<path d="M6941 1865 c18 -25 39 -45 46 -45 8 0 3 10 -13 23 -23 20 -25 26 -15
45 11 20 9 22 -19 22 l-31 0 32 -45z"/>
<path d="M7837 1903 c-12 -11 -8 -50 7 -62 19 -16 40 12 32 44 -6 24 -25 33
-39 18z"/>
<path d="M8450 1906 c0 -2 7 -9 15 -16 13 -11 14 -10 9 4 -5 14 -24 23 -24 12z"/>
<path d="M9620 1900 c0 -5 5 -10 10 -10 6 0 10 5 10 10 0 6 -4 10 -10 10 -5 0
-10 -4 -10 -10z"/>
<path d="M9685 1900 c-8 -13 -1 -24 14 -19 6 3 7 10 2 18 -6 10 -10 10 -16 1z"/>
<path d="M7465 1890 c3 -5 11 -10 16 -10 6 0 7 5 4 10 -3 6 -11 10 -16 10 -6
0 -7 -4 -4 -10z"/>
<path d="M8516 1885 c4 -8 7 -15 9 -15 2 0 5 7 9 15 3 9 0 15 -9 15 -9 0 -12
-6 -9 -15z"/>
<path d="M6984 1878 c-7 -12 21 -38 42 -38 6 0 17 6 23 14 10 12 8 17 -8 25
-26 14 -48 14 -57 -1z"/>
<path d="M7348 1867 c26 -28 27 -31 7 -50 -13 -14 -10 -17 29 -32 55 -21 86
-9 86 35 0 41 -40 70 -98 70 l-45 0 21 -23z"/>
<path d="M8263 1875 c-9 -25 4 -29 17 -6 7 15 7 21 0 21 -6 0 -13 -7 -17 -15z"/>
<path d="M8326 1869 c-29 -23 -34 -60 -11 -79 8 -6 30 -16 50 -20 33 -7 35 -6
35 16 0 16 10 30 31 43 l30 19 -29 21 c-38 27 -72 27 -106 0z"/>
<path d="M8552 1866 c-8 -19 -7 -28 4 -43 14 -17 14 -17 29 1 19 26 19 52 -1
60 -21 8 -19 9 -32 -18z"/>
<path d="M7090 1865 c0 -16 16 -20 24 -6 3 5 -1 11 -9 15 -9 3 -15 0 -15 -9z"/>
<path d="M7532 1868 c2 -6 10 -14 16 -16 7 -2 10 2 6 12 -7 18 -28 22 -22 4z"/>
<path d="M9545 1873 c-56 -14 -66 -22 -56 -42 8 -14 6 -25 -10 -45 l-20 -26
40 0 c51 0 101 39 101 80 0 16 -7 30 -16 34 -9 3 -16 5 -17 5 -1 -1 -11 -4
-22 -6z"/>
<path d="M7200 1861 c0 -5 7 -11 15 -15 9 -3 15 0 15 9 0 8 -7 15 -15 15 -8 0
-15 -4 -15 -9z"/>
<path d="M7265 1860 c-8 -13 39 -42 59 -34 20 8 21 30 0 38 -23 9 -52 7 -59
-4z"/>
<path d="M7958 1859 c-18 -10 -26 -59 -10 -59 18 0 52 33 52 51 0 21 -15 24
-42 8z"/>
<path d="M8667 1842 c-24 -27 -22 -51 3 -45 20 5 50 39 50 55 0 15 -37 8 -53
-10z"/>
<path d="M8816 1845 c-15 -11 -16 -15 -5 -15 8 0 24 7 35 15 14 11 15 14 4 14
-8 0 -24 -6 -34 -14z"/>
<path d="M9151 1851 c-22 -14 -4 -51 25 -51 29 0 42 24 24 45 -14 17 -29 19
-49 6z"/>
<path d="M9720 1845 c-14 -16 -8 -18 28 -8 18 4 20 8 10 14 -18 12 -24 11 -38
-6z"/>
<path d="M7710 1840 c0 -17 39 -50 60 -50 24 0 26 22 4 44 -17 18 -64 22 -64
6z"/>
<path d="M8096 1835 c-19 -14 -19 -15 6 -15 14 0 31 7 38 15 10 12 9 15 -6 15
-11 0 -28 -7 -38 -15z"/>
<path d="M9636 1834 c-4 -9 -4 -19 -1 -22 2 -3 7 3 11 12 4 9 4 19 1 22 -2 3
-7 -3 -11 -12z"/>
<path d="M7124 1832 c-9 -5 -8 -11 2 -20 12 -11 14 -9 14 8 0 22 0 23 -16 12z"/>
<path d="M7160 1812 c0 -10 7 -19 14 -19 11 0 13 5 5 19 -5 10 -12 18 -14 18
-3 0 -5 -8 -5 -18z"/>
<path d="M7196 1815 c4 -8 10 -12 15 -9 11 6 2 24 -11 24 -5 0 -7 -7 -4 -15z"/>
<path d="M7500 1810 c0 -11 5 -20 10 -20 6 0 10 9 10 20 0 11 -4 20 -10 20 -5
0 -10 -9 -10 -20z"/>
<path d="M7542 1810 c0 -14 2 -19 5 -12 2 6 2 18 0 25 -3 6 -5 1 -5 -13z"/>
<path d="M8898 1823 c7 -3 16 -2 19 1 4 3 -2 6 -13 5 -11 0 -14 -3 -6 -6z"/>
<path d="M8960 1821 c0 -6 5 -13 10 -16 6 -3 10 1 10 9 0 9 -4 16 -10 16 -5 0
-10 -4 -10 -9z"/>
<path d="M9270 1821 c0 -17 18 -21 24 -6 3 9 0 15 -9 15 -8 0 -15 -4 -15 -9z"/>
<path d="M9316 1814 c-4 -10 -1 -14 6 -12 15 5 23 28 10 28 -5 0 -13 -7 -16
-16z"/>
<path d="M9400 1805 c-9 -11 -10 -19 -3 -26 12 -12 73 14 73 31 0 16 -56 11
-70 -5z"/>
<path d="M7585 1800 c3 -5 18 -10 33 -10 21 0 24 2 12 10 -20 13 -53 13 -45 0z"/>
<path d="M8246 1802 c-3 -6 -1 -14 5 -17 14 -9 20 -2 10 14 -6 8 -11 9 -15 3z"/>
<path d="M8427 1804 c-14 -15 15 -44 43 -44 33 0 35 3 20 31 -10 18 -49 26
-63 13z"/>
<path d="M8795 1796 c-26 -7 -36 -14 -27 -19 17 -11 15 -42 -3 -57 -13 -11
-13 -15 -3 -21 57 -36 158 49 113 95 -19 19 -26 19 -80 2z"/>
<path d="M9230 1795 c-10 -13 -9 -15 8 -15 15 0 20 5 16 15 -4 8 -7 15 -9 15
-1 0 -8 -7 -15 -15z"/>
<path d="M7070 1785 c-17 -20 -6 -45 20 -45 17 0 21 5 18 27 -4 31 -20 40 -38
18z"/>
<path d="M7856 1785 c4 -8 7 -15 9 -15 2 0 5 7 9 15 3 9 0 15 -9 15 -9 0 -12
-6 -9 -15z"/>
<path d="M9695 1775 c-14 -13 -25 -32 -25 -42 0 -13 8 -8 30 17 44 52 40 71
-5 25z"/>
<path d="M7240 1775 c0 -19 36 -55 55 -55 22 0 18 18 -10 45 -27 28 -45 32
-45 10z"/>
<path d="M7810 1775 c-10 -13 -9 -15 8 -15 15 0 20 5 16 15 -4 8 -7 15 -9 15
-1 0 -8 -7 -15 -15z"/>
<path d="M7896 1774 c-6 -16 2 -18 22 -5 11 7 11 9 -1 14 -9 3 -18 -1 -21 -9z"/>
<path d="M8064 1775 c3 -8 9 -21 12 -29 3 -7 -2 -21 -12 -30 -21 -21 -18 -24
33 -32 34 -5 45 -2 62 15 23 23 28 60 9 79 -7 7 -34 12 -61 12 -40 0 -48 -3
-43 -15z"/>
<path d="M9325 1780 c-3 -5 1 -10 9 -10 9 0 16 5 16 10 0 6 -4 10 -9 10 -6 0
-13 -4 -16 -10z"/>
<path d="M9650 1779 c0 -5 5 -7 10 -4 6 3 10 8 10 11 0 2 -4 4 -10 4 -5 0 -10
-5 -10 -11z"/>
<path d="M8560 1771 c0 -17 18 -21 24 -6 3 9 0 15 -9 15 -8 0 -15 -4 -15 -9z"/>
<path d="M8606 1764 c-8 -21 -4 -25 14 -14 11 7 12 12 4 20 -8 8 -13 7 -18 -6z"/>
<path d="M8917 1760 c-3 -11 -2 -20 3 -20 12 0 21 28 11 35 -5 2 -11 -4 -14
-15z"/>
<path d="M9002 1773 c-21 -8 -4 -21 23 -16 13 3 22 9 19 14 -6 10 -21 10 -42
2z"/>
<path d="M7026 1762 c-8 -13 55 -115 65 -105 4 4 10 18 14 31 5 18 2 22 -14
22 -13 0 -29 12 -40 31 -10 17 -22 26 -25 21z"/>
<path d="M7540 1760 c-8 -5 -12 -12 -9 -15 4 -3 12 1 19 10 14 17 11 19 -10 5z"/>
<path d="M7170 1737 c0 -13 6 -32 14 -43 14 -18 15 -18 22 -1 8 21 -10 67 -26
67 -5 0 -10 -10 -10 -23z"/>
<path d="M7386 1739 c20 -23 54 -28 35 -5 -6 8 -21 16 -32 19 -20 5 -20 5 -3
-14z"/>
<path d="M7465 1750 c-3 -5 -1 -10 4 -10 6 0 11 5 11 10 0 6 -2 10 -4 10 -3 0
-8 -4 -11 -10z"/>
<path d="M7598 1753 c-19 -5 -34 -44 -25 -67 3 -8 17 -22 31 -31 21 -14 31
-15 61 -5 38 13 44 24 18 38 -12 7 -14 17 -10 41 6 30 5 31 -26 30 -17 -1 -40
-3 -49 -6z"/>
<path d="M7981 1746 c-10 -12 -9 -17 8 -26 24 -12 65 3 58 23 -6 18 -52 20
-66 3z"/>
<path d="M8210 1735 c0 -15 4 -24 10 -20 6 3 10 12 10 20 0 8 -4 17 -10 20 -6
4 -10 -5 -10 -20z"/>
<path d="M8520 1745 c-10 -13 -9 -15 8 -15 15 0 20 5 16 15 -4 8 -7 15 -9 15
-1 0 -8 -7 -15 -15z"/>
<path d="M8686 1741 c-17 -18 -16 -20 4 -26 24 -8 74 20 65 35 -10 17 -51 11
-69 -9z"/>
<path d="M9210 1744 c0 -14 3 -14 15 -4 8 7 15 14 15 16 0 2 -7 4 -15 4 -8 0
-15 -7 -15 -16z"/>
<path d="M9611 1753 c-1 -6 -17 -21 -37 -32 -31 -18 -35 -25 -29 -49 4 -21 0
-33 -15 -47 -28 -26 -25 -45 8 -45 36 1 92 69 67 82 -20 12 -19 37 1 59 9 10
14 24 11 31 -3 8 -6 9 -6 1z"/>
<path d="M7324 1728 c1 -15 -6 -24 -22 -27 l-23 -6 23 -34 c31 -46 53 -59 76
-45 30 19 26 58 -8 98 -37 42 -47 45 -46 14z"/>
<path d="M7922 1741 c-11 -7 -11 -9 2 -14 10 -4 16 -1 16 8 0 17 -1 17 -18 6z"/>
<path d="M8292 1741 c-21 -13 11 -21 45 -11 15 4 20 9 11 9 -9 1 -22 3 -30 6
-7 3 -19 1 -26 -4z"/>
<path d="M9302 1739 c2 -6 8 -10 13 -10 5 0 11 4 13 10 2 6 -4 11 -13 11 -9 0
-15 -5 -13 -11z"/>
<path d="M7500 1731 c0 -6 -9 -11 -20 -11 -25 0 -35 -22 -21 -48 8 -14 6 -24
-4 -38 -21 -27 -19 -54 4 -54 10 0 24 -6 30 -14 6 -7 25 -16 42 -20 22 -4 34
-15 45 -41 15 -36 31 -42 65 -25 18 10 18 12 3 27 -9 9 -13 25 -10 36 6 25
-10 47 -35 47 -10 0 -24 8 -31 18 -7 9 -25 25 -40 35 -29 18 -37 54 -17 74 8
8 8 13 0 17 -6 4 -11 2 -11 -3z"/>
<path d="M7701 1726 c-11 -13 -11 -17 2 -22 25 -9 62 0 62 16 0 21 -49 25 -64
6z"/>
<path d="M7800 1725 c0 -9 6 -12 15 -9 8 4 12 10 9 15 -8 14 -24 10 -24 -6z"/>
<path d="M8620 1725 c-10 -12 -10 -15 4 -15 9 0 16 7 16 15 0 8 -2 15 -4 15
-2 0 -9 -7 -16 -15z"/>
<path d="M9013 1720 c-43 -19 -62 -52 -49 -85 8 -23 62 -18 101 8 33 22 33 23
14 36 -19 11 -20 14 -5 37 15 22 15 24 -1 24 -10 0 -37 -9 -60 -20z"/>
<path d="M9107 1722 c-22 -24 -21 -32 1 -32 21 0 62 27 62 41 0 16 -46 10 -63
-9z"/>
<path d="M9231 1716 c-7 -8 -8 -17 -3 -20 6 -3 13 1 16 10 9 23 2 28 -13 10z"/>
<path d="M9266 1715 c-3 -9 0 -15 9 -15 9 0 12 6 9 15 -4 8 -7 15 -9 15 -2 0
-5 -7 -9 -15z"/>
<path d="M9480 1715 c7 -8 19 -15 26 -15 8 0 14 7 14 15 0 10 -10 15 -26 15
-22 0 -25 -2 -14 -15z"/>
<path d="M8939 1703 c-13 -16 -12 -17 4 -4 16 13 21 21 13 21 -2 0 -10 -8 -17
-17z"/>
<path d="M9344 1706 c-10 -26 4 -48 28 -44 17 2 23 10 23 28 0 18 -6 26 -23
28 -13 2 -25 -3 -28 -12z"/>
<path d="M9625 1707 c-4 -10 -5 -21 -1 -24 10 -10 18 4 13 24 -4 17 -4 17 -12
0z"/>
<path d="M7830 1695 c-8 -9 -8 -15 -2 -15 12 0 26 19 19 26 -2 2 -10 -2 -17
-11z"/>
<path d="M7900 1700 c0 -13 18 -22 24 -11 3 5 -1 11 -9 15 -8 3 -15 1 -15 -4z"/>
<path d="M8500 1695 c0 -9 6 -12 15 -9 8 4 15 10 15 15 0 5 -7 9 -15 9 -8 0
-15 -7 -15 -15z"/>
<path d="M9414 1677 c-6 -22 -16 -33 -31 -35 -27 -4 -29 -14 -7 -47 21 -32 48
-32 79 0 39 38 31 79 -21 108 -5 3 -14 -8 -20 -26z"/>
<path d="M7530 1683 c0 -13 5 -23 10 -23 13 0 13 11 0 30 -8 12 -10 11 -10 -7z"/>
<path d="M7867 1681 c-3 -13 -1 -18 9 -14 7 2 10 11 7 19 -7 19 -10 18 -16 -5z"/>
<path d="M8239 1683 c-13 -16 -12 -17 4 -4 16 13 21 21 13 21 -2 0 -10 -8 -17
-17z"/>
<path d="M8302 1690 c-28 -12 -46 -54 -32 -80 16 -30 45 -33 90 -10 l41 21
-22 18 c-18 15 -20 21 -10 39 11 20 9 22 -16 21 -15 0 -38 -4 -51 -9z"/>
<path d="M8400 1685 c-14 -17 -5 -35 19 -35 20 0 54 33 44 43 -12 12 -50 7
-63 -8z"/>
<path d="M8600 1680 c0 -5 4 -10 9 -10 6 0 13 5 16 10 3 6 -1 10 -9 10 -9 0
-16 -4 -16 -10z"/>
<path d="M8860 1680 c-9 -6 -10 -10 -3 -10 6 0 15 5 18 10 8 12 4 12 -15 0z"/>
<path d="M8889 1670 c-9 -8 -24 -20 -35 -26 -13 -8 -18 -20 -16 -46 2 -22 -3
-40 -13 -48 -21 -17 -19 -40 3 -40 10 0 22 -4 28 -9 5 -5 23 -11 39 -13 19 -2
33 -11 40 -25 14 -33 31 -35 62 -8 17 14 22 24 14 25 -10 0 -12 9 -8 35 6 36
2 39 -36 36 -9 -1 -20 4 -23 12 -3 9 -16 18 -29 21 -31 8 -39 34 -20 63 20 30
16 44 -6 23z"/>
<path d="M7160 1651 c0 -48 26 -91 55 -91 33 0 44 24 32 71 -8 34 -12 38 -33
33 -14 -4 -31 -1 -39 6 -13 11 -15 8 -15 -19z"/>
<path d="M8526 1671 c-4 -7 -5 -15 -2 -18 9 -9 19 4 14 18 -4 11 -6 11 -12 0z"/>
<path d="M7431 1654 c0 -11 3 -14 6 -6 3 7 2 16 -1 19 -3 4 -6 -2 -5 -13z"/>
<path d="M7940 1659 c0 -23 22 -49 40 -49 26 0 27 36 1 50 -25 13 -41 13 -41
-1z"/>
<path d="M8560 1654 c0 -8 5 -12 10 -9 6 3 10 10 10 16 0 5 -4 9 -10 9 -5 0
-10 -7 -10 -16z"/>
<path d="M9174 1662 c-15 -10 -37 -53 -30 -59 9 -10 53 25 59 46 5 21 -8 27
-29 13z"/>
<path d="M9262 1658 c-13 -13 -16 -68 -4 -68 15 0 32 24 32 46 0 28 -13 37
-28 22z"/>
<path d="M7776 1644 c-18 -18 -21 -40 -6 -49 16 -10 40 15 40 41 0 28 -12 31
-34 8z"/>
<path d="M8080 1640 c28 -22 40 -25 40 -10 0 6 -12 15 -26 20 -38 15 -42 12
-14 -10z"/>
<path d="M8180 1642 c-35 -23 -39 -31 -33 -67 3 -21 0 -35 -11 -44 -24 -20
-20 -41 8 -41 14 0 28 -4 31 -10 3 -5 17 -10 31 -10 18 0 31 -10 45 -35 24
-41 25 -41 62 -16 24 15 26 19 11 25 -12 5 -15 14 -11 36 7 31 -6 46 -35 42
-9 -2 -22 6 -28 17 -6 12 -17 21 -24 21 -28 0 -41 29 -28 63 6 17 11 32 9 33
-1 1 -13 -5 -27 -14z"/>
<path d="M8642 1633 c2 -20 9 -29 26 -31 20 -3 23 0 20 25 -2 20 -9 29 -26 31
-20 3 -23 0 -20 -25z"/>
<path d="M8778 1644 c12 -8 27 -12 32 -9 17 10 1 25 -28 25 l-26 0 22 -16z"/>
<path d="M9511 1644 c0 -11 3 -14 6 -6 3 7 2 16 -1 19 -3 4 -6 -2 -5 -13z"/>
<path d="M7120 1633 c0 -13 5 -23 10 -23 13 0 13 11 0 30 -8 12 -10 11 -10 -7z"/>
<path d="M7275 1630 c9 -31 25 -50 25 -29 0 7 -8 23 -16 34 -16 19 -16 19 -9
-5z"/>
<path d="M8915 1637 c-4 -10 -5 -21 -1 -24 10 -10 18 4 13 24 -4 17 -4 17 -12
0z"/>
<path d="M8020 1616 c0 -17 -8 -27 -25 -33 l-25 -8 20 -32 c23 -38 57 -44 83
-15 25 27 21 55 -11 85 -35 33 -42 34 -42 3z"/>
<path d="M8711 1610 c-7 -20 -17 -30 -30 -30 -25 0 -25 -3 -6 -40 20 -38 56
-40 84 -4 26 33 27 56 4 76 -34 29 -41 28 -52 -2z"/>
<path d="M7587 1619 c7 -7 15 -10 18 -7 3 3 -2 9 -12 12 -14 6 -15 5 -6 -5z"/>
<path d="M7673 1620 c-13 -5 -23 -14 -23 -20 0 -16 15 -12 35 10 20 22 20 23
-12 10z"/>
<path d="M7865 1611 c-8 -26 13 -67 27 -53 13 13 6 64 -9 69 -6 2 -14 -5 -18
-16z"/>
<path d="M8472 1614 c-24 -17 -30 -54 -8 -54 15 0 30 16 39 42 9 24 -6 30 -31
12z"/>
<path d="M7711 1592 c-11 -17 -21 -40 -21 -51 0 -24 33 -61 55 -61 16 0 39 31
49 67 6 17 2 22 -16 25 -12 2 -28 13 -34 26 l-12 23 -21 -29z"/>
<path d="M8220 1606 c0 -8 5 -18 10 -21 6 -3 10 1 10 9 0 8 -4 18 -10 21 -5 3
-10 -1 -10 -9z"/>
<path d="M9053 1603 c-13 -8 -23 -19 -23 -24 0 -16 15 -9 33 16 21 29 20 29
-10 8z"/>
<path d="M9088 1582 c-16 -19 -28 -43 -28 -53 0 -16 24 -49 36 -49 19 0 47 27
64 60 l20 40 -25 0 c-16 0 -28 7 -33 19 -6 17 -10 15 -34 -17z"/>
<path d="M8554 1586 c-3 -14 -3 -33 0 -42 10 -25 38 3 34 34 -4 35 -26 39 -34
8z"/>
<path d="M7407 1593 c-4 -3 -7 -11 -7 -17 0 -6 5 -5 12 2 6 6 9 14 7 17 -3 3
-9 2 -12 -2z"/>
<path d="M9283 1579 c-17 -18 -25 -20 -36 -10 -18 14 -27 -4 -27 -54 0 -49 29
-63 65 -32 23 19 26 29 23 70 l-3 48 -22 -22z"/>
<path d="M8960 1580 c0 -5 7 -7 15 -4 8 4 15 8 15 10 0 2 -7 4 -15 4 -8 0 -15
-4 -15 -10z"/>
<path d="M8121 1564 c0 -11 3 -14 6 -6 3 7 2 16 -1 19 -3 4 -6 -2 -5 -13z"/>
<path d="M8350 1560 c-14 -10 -22 -22 -18 -25 9 -9 26 2 38 26 13 23 11 23
-20 -1z"/>
<path d="M8397 1545 c-30 -45 -33 -63 -14 -90 21 -27 59 -13 80 30 21 45 21
43 -5 47 -14 2 -24 12 -28 28 -6 25 -6 24 -33 -15z"/>
<path d="M9340 1561 c0 -11 5 -23 10 -26 6 -3 10 3 10 14 0 11 -4 23 -10 26
-5 3 -10 -3 -10 -14z"/>
<path d="M9470 1565 c-7 -9 -8 -15 -2 -15 5 0 12 7 16 15 3 8 4 15 2 15 -2 0
-9 -7 -16 -15z"/>
<path d="M7297 1541 c-4 -17 -14 -31 -24 -33 -14 -3 -12 -7 12 -19 34 -18 66
-14 59 6 -3 7 -1 22 5 32 7 15 5 22 -10 31 -28 18 -36 15 -42 -17z"/>
<path d="M7266 1543 c-6 -14 -5 -15 5 -6 7 7 10 15 7 18 -3 3 -9 -2 -12 -12z"/>
<path d="M7440 1550 c0 -5 9 -10 21 -10 11 0 17 5 14 10 -3 6 -13 10 -21 10
-8 0 -14 -4 -14 -10z"/>
<path d="M7850 1502 c0 -53 12 -72 47 -72 29 0 44 35 36 84 -6 39 -12 43 -31
24 -10 -10 -17 -10 -32 0 -19 11 -20 9 -20 -36z"/>
<path d="M9505 1540 c-3 -5 -2 -10 4 -10 5 0 13 5 16 10 3 6 2 10 -4 10 -5 0
-13 -4 -16 -10z"/>
<path d="M8587 1523 c-14 -15 -21 -16 -37 -5 -19 12 -20 10 -20 -42 0 -59 8
-71 44 -62 31 8 50 54 39 95 -8 30 -9 31 -26 14z"/>
<path d="M7377 1523 c-4 -3 -7 -13 -7 -21 0 -12 3 -12 15 -2 8 7 15 16 15 21
0 11 -14 12 -23 2z"/>
<path d="M7960 1513 c0 -12 5 -25 10 -28 13 -8 13 15 0 35 -8 12 -10 11 -10
-7z"/>
<path d="M8640 1508 c0 -15 5 -30 10 -33 13 -8 13 25 0 45 -8 12 -10 9 -10
-12z"/>
<path d="M9177 1516 c-4 -10 -5 -21 -2 -24 9 -9 17 6 13 25 -3 17 -4 17 -11
-1z"/>
<path d="M7172 1495 c7 -16 19 -25 35 -25 22 0 22 1 5 18 -10 10 -26 21 -35
25 -14 5 -15 3 -5 -18z"/>
<path d="M7215 1510 c3 -5 8 -10 11 -10 2 0 4 5 4 10 0 6 -5 10 -11 10 -5 0
-7 -4 -4 -10z"/>
<path d="M7530 1505 c7 -9 15 -13 17 -11 7 7 -7 26 -19 26 -6 0 -6 -6 2 -15z"/>
<path d="M7808 1500 c-7 -24 -3 -38 8 -28 3 4 4 17 2 30 l-3 23 -7 -25z"/>
<path d="M8770 1505 c-7 -9 -11 -18 -8 -20 3 -3 11 1 18 10 7 9 11 18 8 20 -3
3 -11 -1 -18 -10z"/>
<path d="M9021 1504 c0 -11 3 -14 6 -6 3 7 2 16 -1 19 -3 4 -6 -2 -5 -13z"/>
<path d="M9363 1513 c-7 -2 -13 -15 -13 -28 0 -14 -11 -32 -26 -44 l-27 -21
31 0 c42 0 62 9 62 29 0 9 7 27 16 39 8 12 11 22 5 22 -5 0 -15 2 -23 4 -7 3
-19 2 -25 -1z"/>
<path d="M7434 1500 c-30 -12 -36 -36 -23 -81 12 -39 22 -48 34 -29 10 16 55
11 62 -7 6 -15 7 -15 14 3 17 42 10 82 -17 103 -29 23 -38 24 -70 11z"/>
<path d="M8085 1490 c-3 -5 -1 -10 4 -10 6 0 11 5 11 10 0 6 -2 10 -4 10 -3 0
-8 -4 -11 -10z"/>
<path d="M9429 1478 c-12 -23 -12 -23 10 -4 23 21 26 26 11 26 -5 0 -15 -10
-21 -22z"/>
<path d="M8486 1472 c-4 -13 -5 -26 -2 -29 10 -11 18 4 14 29 l-4 23 -8 -23z"/>
<path d="M9316 1473 c-6 -14 -5 -15 5 -6 7 7 10 15 7 18 -3 3 -9 -2 -12 -12z"/>
<path d="M8025 1470 c3 -5 8 -10 11 -10 2 0 4 5 4 10 0 6 -5 10 -11 10 -5 0
-7 -4 -4 -10z"/>
<path d="M8705 1470 c4 -6 11 -8 16 -5 14 9 11 15 -7 15 -8 0 -12 -5 -9 -10z"/>
<path d="M8800 1470 c0 -13 11 -13 30 0 12 8 11 10 -7 10 -13 0 -23 -4 -23
-10z"/>
<path d="M7258 1463 c7 -3 16 -2 19 1 4 3 -2 6 -13 5 -11 0 -14 -3 -6 -6z"/>
<path d="M8125 1460 c-3 -5 3 -10 15 -10 12 0 18 5 15 10 -3 6 -10 10 -15 10
-5 0 -12 -4 -15 -10z"/>
<path d="M8890 1455 c7 -9 15 -13 17 -11 7 7 -7 26 -19 26 -6 0 -6 -6 2 -15z"/>
<path d="M7340 1449 c0 -5 10 -20 21 -32 18 -18 21 -19 15 -4 -3 10 -6 22 -6
27 0 4 -7 10 -15 14 -8 3 -15 1 -15 -5z"/>
<path d="M7648 1453 c7 -3 16 -2 19 1 4 3 -2 6 -13 5 -11 0 -14 -3 -6 -6z"/>
<path d="M7974 1425 c-8 -20 -24 -39 -36 -44 -19 -7 -17 -9 16 -14 48 -8 66 0
66 28 0 13 5 27 11 30 6 5 4 12 -8 21 -27 20 -33 17 -49 -21z"/>
<path d="M8663 1453 c-7 -2 -13 -15 -13 -28 0 -14 -11 -33 -27 -45 l-27 -21
43 3 c41 3 45 6 56 38 16 45 2 67 -32 53z"/>
<path d="M9144 1434 c-4 -14 -1 -36 6 -50 11 -20 11 -27 -3 -42 -23 -25 -21
-49 3 -55 30 -8 35 -6 32 14 -5 28 17 60 49 71 24 8 27 13 18 24 -6 8 -20 14
-30 14 -11 0 -24 11 -31 25 -15 32 -36 32 -44 -1z"/>
<path d="M9206 1447 c3 -10 9 -15 12 -12 3 3 0 11 -7 18 -10 9 -11 8 -5 -6z"/>
<path d="M7566 1434 c-11 -27 -7 -37 9 -24 16 14 20 40 6 40 -5 0 -12 -7 -15
-16z"/>
<path d="M7785 1436 c-3 -9 -7 -23 -10 -32 -3 -9 2 -25 11 -35 15 -17 15 -20
0 -43 -22 -35 -20 -42 14 -59 29 -15 29 -15 24 12 -7 32 16 61 47 61 16 0 17
3 7 19 -7 11 -20 22 -30 24 -10 3 -22 16 -27 30 -12 32 -30 43 -36 23z"/>
<path d="M8210 1425 c7 -9 15 -13 17 -11 7 7 -7 26 -19 26 -6 0 -6 -6 2 -15z"/>
<path d="M8803 1425 c-45 -19 -58 -48 -44 -96 l11 -38 25 25 c21 21 28 23 46
13 27 -14 39 1 39 53 0 27 -5 40 -19 48 -23 12 -19 12 -58 -5z"/>
<path d="M9267 1433 c-4 -3 -7 -11 -7 -17 0 -6 5 -5 12 2 6 6 9 14 7 17 -3 3
-9 2 -12 -2z"/>
<path d="M7242 1414 l-22 -15 20 -39 c11 -22 34 -47 50 -55 l30 -16 0 30 c0
25 4 30 28 33 l27 3 -36 38 c-40 40 -63 45 -97 21z"/>
<path d="M8727 1410 c-3 -11 -3 -20 -1 -20 2 0 8 9 14 20 6 11 7 20 2 20 -6 0
-12 -9 -15 -20z"/>
<path d="M9095 1420 c3 -5 11 -10 16 -10 6 0 7 5 4 10 -3 6 -11 10 -16 10 -6
0 -7 -4 -4 -10z"/>
<path d="M7605 1388 l-27 -32 26 -9 c18 -6 26 -16 26 -33 0 -29 15 -30 58 -4
37 23 44 66 14 93 -30 27 -67 21 -97 -15z"/>
<path d="M8050 1409 c0 -5 5 -7 10 -4 6 3 10 8 10 11 0 2 -4 4 -10 4 -5 0 -10
-5 -10 -11z"/>
<path d="M8109 1405 c-35 -19 -41 -39 -28 -87 l10 -40 24 22 c23 21 26 22 49
7 23 -15 24 -15 30 6 23 87 -16 129 -85 92z"/>
<path d="M8457 1403 c-11 -10 -8 -52 5 -73 10 -15 9 -22 -5 -38 -21 -23 -22
-52 -3 -52 8 0 21 -3 29 -6 12 -4 14 0 10 14 -7 28 13 61 42 68 14 3 25 10 25
14 0 10 -20 24 -39 27 -16 2 -31 22 -31 41 0 13 -22 17 -33 5z"/>
<path d="M8925 1395 c-15 -47 -15 -49 5 -25 11 14 20 28 20 33 0 13 -21 7 -25
-8z"/>
<path d="M9385 1401 c-10 -17 12 -21 25 -6 10 12 10 15 -3 15 -9 0 -18 -4 -22
-9z"/>
<path d="M8974 1373 c-14 -16 -30 -36 -35 -45 -8 -15 -5 -18 16 -18 24 0 30
-9 26 -38 -4 -24 88 47 95 74 14 56 -58 75 -102 27z"/>
<path d="M9296 1391 c-4 -5 3 -7 14 -4 23 6 26 13 6 13 -8 0 -17 -4 -20 -9z"/>
<path d="M8407 1379 c7 -7 15 -10 18 -7 3 3 -2 9 -12 12 -14 6 -15 5 -6 -5z"/>
<path d="M7454 1355 c-6 -24 9 -55 27 -55 15 0 22 50 9 65 -18 22 -29 19 -36
-10z"/>
<path d="M8240 1361 c-17 -33 -11 -45 10 -18 22 28 25 37 10 37 -5 0 -14 -9
-20 -19z"/>
<path d="M8560 1370 c0 -5 5 -10 10 -10 6 0 10 5 10 10 0 6 -4 10 -10 10 -5 0
-10 -4 -10 -10z"/>
<path d="M8315 1360 c-18 -7 -65 -61 -65 -74 0 -2 10 -6 23 -8 14 -2 23 -11
25 -25 4 -30 10 -29 55 8 43 35 48 70 15 93 -25 18 -25 18 -53 6z"/>
<path d="M9117 1363 c-4 -3 -7 -11 -7 -17 0 -6 5 -5 12 2 6 6 9 14 7 17 -3 3
-9 2 -12 -2z"/>
<path d="M7757 1353 c-4 -3 -7 -11 -7 -17 0 -6 5 -5 12 2 6 6 9 14 7 17 -3 3
-9 2 -12 -2z"/>
<path d="M9274 1326 c-19 -19 -34 -39 -34 -44 0 -12 28 -42 38 -42 8 1 92 104
92 114 0 3 -14 6 -31 6 -22 0 -41 -10 -65 -34z"/>
<path d="M7928 1343 c6 -2 18 -2 25 0 6 3 1 5 -13 5 -14 0 -19 -2 -12 -5z"/>
<path d="M8010 1337 c0 -8 9 -22 20 -32 23 -20 24 -17 10 19 -10 27 -30 35
-30 13z"/>
<path d="M8690 1336 c0 -8 9 -20 20 -26 17 -9 19 -8 11 12 -9 26 -31 36 -31
14z"/>
<path d="M9217 1343 c-4 -3 -7 -13 -7 -21 0 -12 3 -12 15 -2 8 7 15 16 15 21
0 11 -14 12 -23 2z"/>
<path d="M8596 1331 c-4 -5 3 -7 14 -4 23 6 26 13 6 13 -8 0 -17 -4 -20 -9z"/>
<path d="M7340 1317 c0 -19 33 -47 53 -47 21 0 21 9 1 38 -17 24 -54 30 -54 9z"/>
<path d="M7556 1304 c-10 -26 -7 -44 8 -44 19 0 46 27 46 46 0 19 -46 18 -54
-2z"/>
<path d="M7854 1305 c-9 -22 1 -29 15 -11 8 10 9 16 1 21 -5 3 -13 -1 -16 -10z"/>
<path d="M8427 1313 c-4 -3 -7 -11 -7 -17 0 -6 5 -5 12 2 6 6 9 14 7 17 -3 3
-9 2 -12 -2z"/>
<path d="M7912 1294 c-22 -15 -29 -57 -14 -81 7 -12 54 -33 73 -33 5 0 9 11 9
25 0 16 9 29 27 38 l27 15 -29 26 c-32 30 -61 33 -93 10z"/>
<path d="M8798 1285 c-9 -21 -9 -29 4 -42 15 -14 18 -13 33 11 14 21 15 29 5
41 -18 21 -29 19 -42 -10z"/>
<path d="M8530 1285 c-7 -9 -11 -18 -8 -20 3 -3 11 1 18 10 7 9 11 18 8 20 -3
3 -11 -1 -18 -10z"/>
<path d="M8586 1279 c-32 -25 -36 -73 -7 -89 33 -17 71 -13 71 8 0 21 30 52
50 52 9 0 5 9 -10 25 -29 31 -68 32 -104 4z"/>
<path d="M7700 1280 c-12 -8 -9 -10 12 -10 15 0 30 5 33 10 8 13 -25 13 -45 0z"/>
<path d="M8124 1276 c-8 -22 -1 -59 13 -63 16 -6 35 34 28 57 -7 23 -33 27
-41 6z"/>
<path d="M8911 1264 c-25 -31 -26 -44 -6 -44 17 0 55 39 55 57 0 22 -27 15
-49 -13z"/>
<path d="M9054 1275 c-15 -11 -16 -14 -3 -15 8 0 24 7 35 15 15 11 16 14 3 15
-8 0 -24 -7 -35 -15z"/>
<path d="M7466 1255 c4 -8 10 -15 15 -15 5 0 9 7 9 15 0 8 -7 15 -15 15 -9 0
-12 -6 -9 -15z"/>
<path d="M9196 1261 c-4 -7 -5 -15 -2 -18 9 -9 19 4 14 18 -4 11 -6 11 -12 0z"/>
<path d="M8231 1234 c-25 -32 -26 -44 -6 -44 19 0 55 36 55 55 0 24 -27 18
-49 -11z"/>
<path d="M7430 1241 c0 -5 7 -11 14 -14 10 -4 13 -1 9 9 -6 15 -23 19 -23 5z"/>
<path d="M7510 1235 c0 -9 6 -12 15 -9 8 4 12 10 9 15 -8 14 -24 10 -24 -6z"/>
<path d="M7770 1246 c0 -2 7 -7 16 -10 8 -3 12 -2 9 4 -6 10 -25 14 -25 6z"/>
<path d="M8374 1235 c-19 -14 -19 -14 2 -15 12 0 27 7 34 15 17 20 -9 21 -36
0z"/>
<path d="M7683 1233 c-19 -4 -21 -7 -11 -29 9 -19 8 -28 -6 -43 -17 -19 -17
-20 24 -31 36 -10 45 -9 61 6 26 24 25 69 -3 88 -23 16 -26 17 -65 9z"/>
<path d="M7840 1228 c0 -9 5 -20 10 -23 13 -8 13 5 0 25 -8 13 -10 13 -10 -2z"/>
<path d="M9065 1232 c-11 -2 -31 -8 -44 -13 -19 -8 -21 -12 -11 -24 10 -12 9
-20 -4 -40 -22 -33 -21 -35 20 -35 63 0 124 85 77 108 -10 5 -27 6 -38 4z"/>
<path d="M8684 1215 c-4 -8 -3 -22 0 -31 8 -21 50 -14 54 10 6 31 -43 50 -54
21z"/>
<path d="M7320 1205 c-10 -12 -8 -17 14 -26 32 -15 64 4 45 27 -15 18 -43 18
-59 -1z"/>
<path d="M7594 1205 c-17 -13 -17 -16 -4 -25 19 -13 52 -9 57 7 7 21 -32 34
-53 18z"/>
<path d="M8005 1210 c-6 -10 29 -50 45 -50 17 0 23 29 10 45 -14 17 -46 20
-55 5z"/>
<path d="M7420 1195 c0 -9 6 -12 15 -9 8 4 12 10 9 15 -8 14 -24 10 -24 -6z"/>
<path d="M7526 1201 c-3 -5 1 -11 9 -15 9 -3 15 0 15 9 0 16 -16 20 -24 6z"/>
<path d="M8506 1201 c-3 -5 1 -11 9 -14 9 -4 12 -1 8 9 -6 16 -10 17 -17 5z"/>
<path d="M9147 1189 c-4 -16 -3 -18 9 -8 16 13 19 29 5 29 -5 0 -11 -9 -14
-21z"/>
<path d="M9225 1200 c-3 -5 -2 -10 4 -10 5 0 13 5 16 10 3 6 2 10 -4 10 -5 0
-13 -4 -16 -10z"/>
<path d="M8800 1191 c0 -17 18 -21 24 -6 3 9 0 15 -9 15 -8 0 -15 -4 -15 -9z"/>
<path d="M8846 1184 c-9 -23 -2 -28 13 -10 7 8 8 17 3 20 -6 3 -13 -1 -16 -10z"/>
<path d="M7807 1176 c-4 -10 -5 -21 -2 -24 9 -9 17 6 13 25 -3 17 -4 17 -11
-1z"/>
<path d="M8343 1183 c-27 -5 -27 -7 -11 -33 10 -15 9 -22 -5 -38 -22 -24 -13
-32 34 -32 29 0 42 6 58 26 48 61 14 94 -76 77z"/>
<path d="M8929 1171 c-22 -18 -23 -20 -6 -27 23 -8 70 12 64 29 -6 20 -32 19
-58 -2z"/>
<path d="M8130 1171 c0 -17 18 -21 24 -6 3 9 0 15 -9 15 -8 0 -15 -4 -15 -9z"/>
<path d="M8766 1165 c-3 -9 0 -15 9 -15 9 0 12 6 9 15 -4 8 -7 15 -9 15 -2 0
-5 -7 -9 -15z"/>
<path d="M7440 1161 c0 -6 5 -13 10 -16 6 -3 10 1 10 9 0 9 -4 16 -10 16 -5 0
-10 -4 -10 -9z"/>
<path d="M7512 1161 c4 -13 18 -16 19 -4 0 4 -5 9 -11 12 -7 2 -11 -2 -8 -8z"/>
<path d="M7880 1160 c0 -5 15 -10 33 -9 27 0 29 2 12 9 -28 12 -45 12 -45 0z"/>
<path d="M8175 1159 c-9 -14 -2 -20 14 -10 8 6 9 11 3 15 -6 3 -14 1 -17 -5z"/>
<path d="M7480 1146 c0 -9 5 -16 10 -16 6 0 10 4 10 9 0 6 -4 13 -10 16 -5 3
-10 -1 -10 -9z"/>
<path d="M8096 1152 c-3 -6 -1 -14 5 -17 15 -10 25 3 12 16 -7 7 -13 7 -17 1z"/>
<path d="M8470 1141 c0 -25 6 -27 13 -6 4 8 2 17 -3 20 -6 4 -10 -3 -10 -14z"/>
<path d="M8548 1149 c-22 -14 1 -22 34 -12 l33 9 -27 6 c-15 3 -32 1 -40 -3z"/>
<path d="M8861 1151 c-10 -6 -10 -10 -1 -16 13 -8 24 -1 19 14 -3 6 -10 7 -18
2z"/>
<path d="M8252 1138 c-16 -16 -15 -25 4 -32 20 -8 67 21 59 34 -9 14 -49 12
-63 -2z"/>
<path d="M7392 1118 c-7 -7 -12 -20 -12 -31 0 -32 44 -18 48 16 4 29 -14 37
-36 15z"/>
<path d="M7550 1115 c0 -17 35 -55 50 -55 17 0 11 29 -10 50 -24 24 -40 26
-40 5z"/>
<path d="M8185 1120 c-3 -5 1 -10 9 -10 9 0 16 5 16 10 0 6 -4 10 -9 10 -6 0
-13 -4 -16 -10z"/>
<path d="M8740 1115 c0 -9 6 -12 15 -9 8 4 12 10 9 15 -8 14 -24 10 -24 -6z"/>
<path d="M9090 1115 c-11 -13 -10 -14 4 -9 9 3 16 10 16 15 0 13 -6 11 -20 -6z"/>
<path d="M7825 1110 c-3 -5 -1 -10 4 -10 6 0 11 5 11 10 0 6 -2 10 -4 10 -3 0
-8 -4 -11 -10z"/>
<path d="M7887 1113 c-24 -6 -40 -49 -27 -73 19 -36 46 -42 86 -22 31 16 34
20 20 31 -19 16 -21 42 -4 59 9 9 4 12 -22 11 -19 -1 -43 -3 -53 -6z"/>
<path d="M8615 1115 c-5 -2 -22 -6 -37 -9 -55 -12 -88 -77 -53 -106 18 -15 55
-7 86 21 17 14 20 22 12 25 -16 7 -17 36 -1 52 13 13 9 21 -7 17z"/>
<path d="M8653 1095 l-28 -24 31 -1 c43 0 72 31 39 44 -8 3 -27 -6 -42 -19z"/>
<path d="M7676 1089 c20 -23 54 -28 35 -5 -6 8 -21 16 -32 19 -20 5 -20 5 -3
-14z"/>
<path d="M7760 1099 c0 -5 5 -7 10 -4 6 3 10 8 10 11 0 2 -4 4 -10 4 -5 0 -10
-5 -10 -11z"/>
<path d="M7979 1094 c-10 -13 -10 -17 2 -25 8 -5 19 -9 25 -9 15 0 46 35 37
43 -12 13 -50 7 -64 -9z"/>
<path d="M8080 1100 c0 -5 4 -10 9 -10 6 0 13 5 16 10 3 6 -1 10 -9 10 -9 0
-16 -4 -16 -10z"/>
<path d="M8835 1100 c4 -6 11 -8 16 -5 14 9 11 15 -7 15 -8 0 -12 -5 -9 -10z"/>
<path d="M9110 1095 c-7 -8 -18 -15 -26 -15 -18 0 -32 -29 -26 -52 3 -11 -5
-30 -19 -46 -15 -17 -9 -14 13 7 21 19 47 53 58 75 21 43 21 56 0 31z"/>
<path d="M7485 1088 c-9 -23 -2 -61 11 -65 18 -6 23 31 8 58 -11 21 -13 22
-19 7z"/>
<path d="M8489 1083 c-13 -16 -12 -17 4 -4 16 13 21 21 13 21 -2 0 -10 -8 -17
-17z"/>
<path d="M8766 1091 c-4 -7 -5 -15 -2 -18 9 -9 19 4 14 18 -4 11 -6 11 -12 0z"/>
<path d="M7628 1069 c-2 -16 -11 -25 -25 -27 -28 -4 -28 -3 -2 -46 16 -28 27
-36 49 -36 49 0 55 62 11 104 l-29 28 -4 -23z"/>
<path d="M7767 1073 c-24 -12 -27 -19 -22 -43 4 -16 1 -39 -6 -51 -10 -20 -8
-25 17 -43 15 -12 37 -23 48 -26 12 -3 28 -20 36 -37 16 -35 34 -40 63 -19 12
10 15 16 7 21 -6 4 -9 14 -5 22 9 25 -5 53 -26 53 -11 0 -36 16 -56 35 -31 31
-35 38 -29 70 4 19 6 35 4 34 -2 -1 -16 -8 -31 -16z"/>
<path d="M8170 1080 c0 -5 5 -10 10 -10 6 0 10 5 10 10 0 6 -4 10 -10 10 -5 0
-10 -4 -10 -10z"/>
<path d="M8797 1076 c-4 -10 -1 -13 9 -9 15 6 19 23 5 23 -5 0 -11 -7 -14 -14z"/>
<path d="M9002 1074 c9 -9 21 -13 27 -10 20 13 11 26 -16 26 -25 0 -26 -1 -11
-16z"/>
<path d="M8101 1071 c-8 -6 -9 -11 -3 -15 6 -3 14 -1 17 5 9 14 2 20 -14 10z"/>
<path d="M8136 1064 c-4 -9 -4 -19 -1 -22 2 -3 7 3 11 12 4 9 4 19 1 22 -2 3
-7 -3 -11 -12z"/>
<path d="M8870 1055 c0 -20 5 -25 25 -25 20 0 25 5 25 25 0 20 -5 25 -25 25
-20 0 -25 -5 -25 -25z"/>
<path d="M8937 1040 c-5 -20 -14 -31 -31 -36 -22 -5 -23 -8 -14 -35 15 -45 68
-38 93 12 20 37 19 45 -7 69 -29 27 -34 25 -41 -10z"/>
<path d="M20250 985 l0 -85 -55 0 -55 0 0 -35 0 -35 55 0 55 0 0 -210 0 -210
35 0 35 0 0 210 0 210 55 0 55 0 0 35 0 35 -55 0 -55 0 0 85 0 85 -35 0 -35 0
0 -85z"/>
<path d="M8430 1042 c-34 -23 -39 -32 -33 -62 3 -17 -1 -31 -11 -39 -9 -8 -16
-19 -16 -25 0 -12 46 -36 70 -36 21 0 40 -20 40 -42 0 -21 18 -23 44 -3 11 9
20 30 22 55 4 37 2 40 -21 40 -14 0 -28 7 -31 15 -4 8 -12 15 -19 15 -27 0
-40 30 -27 63 6 17 11 32 9 33 -1 1 -13 -5 -27 -14z"/>
<path d="M7383 1020 c14 -36 23 -38 30 -8 7 26 8 24 -20 32 -20 7 -21 5 -10
-24z"/>
<path d="M7810 1036 c0 -8 5 -18 10 -21 6 -3 10 1 10 9 0 8 -4 18 -10 21 -5 3
-10 -1 -10 -9z"/>
<path d="M8210 1030 c0 -26 38 -47 46 -25 9 23 -3 45 -26 45 -13 0 -20 -7 -20
-20z"/>
<path d="M8336 1035 c27 -20 51 -20 34 0 -7 8 -22 15 -33 15 -20 0 -20 0 -1
-15z"/>
<path d="M8696 1018 c-17 -24 -21 -48 -8 -48 14 0 52 40 52 55 0 22 -27 18
-44 -7z"/>
<path d="M8046 1014 c-17 -17 -22 -54 -7 -54 16 0 41 31 41 51 0 23 -13 24
-34 3z"/>
<path d="M8278 1009 c-2 -18 -15 -30 -46 -46 -2 0 4 -15 13 -32 19 -38 56 -42
79 -9 22 32 20 61 -7 86 -29 27 -35 27 -39 1z"/>
<path d="M8467 1016 c-4 -10 -5 -21 -2 -24 9 -9 17 6 13 25 -3 17 -4 17 -11
-1z"/>
<path d="M8786 1014 c-9 -24 -7 -54 4 -54 14 0 32 39 26 56 -7 19 -22 18 -30
-2z"/>
<path d="M19420 995 c0 -33 2 -35 35 -35 33 0 35 2 35 35 0 33 -2 35 -35 35
-33 0 -35 -2 -35 -35z"/>
<path d="M20510 995 c0 -33 2 -35 35 -35 33 0 35 2 35 35 0 33 -2 35 -35 35
-33 0 -35 -2 -35 -35z"/>
<path d="M7521 1006 c-10 -12 -18 -13 -32 -5 -17 9 -19 6 -19 -30 0 -51 30
-91 57 -75 21 13 27 49 16 94 -8 29 -10 30 -22 16z"/>
<path d="M7721 1004 c0 -11 3 -14 6 -6 3 7 2 16 -1 19 -3 4 -6 -2 -5 -13z"/>
<path d="M9025 1009 c-4 -6 -5 -12 -2 -15 2 -3 7 2 10 11 7 17 1 20 -8 4z"/>
<path d="M8134 996 c-8 -21 -1 -61 11 -61 6 0 11 17 13 38 3 37 -13 52 -24 23z"/>
<path d="M7432 965 c0 -16 2 -22 5 -12 2 9 2 23 0 30 -3 6 -5 -1 -5 -18z"/>
<path d="M7570 980 c0 -8 5 -22 10 -30 9 -13 10 -13 10 0 0 8 -5 22 -10 30 -9
13 -10 13 -10 0z"/>
<path d="M7934 976 c-10 -8 -15 -18 -11 -22 4 -4 15 0 24 9 22 21 12 31 -13
13z"/>
<path d="M7982 958 c-26 -42 -27 -56 -6 -86 21 -31 41 -28 64 11 25 40 25 57
1 57 -12 0 -23 10 -28 27 l-9 27 -22 -36z"/>
<path d="M8589 971 c-13 -11 -21 -22 -18 -25 3 -3 16 5 29 19 28 30 22 33 -11
6z"/>
<path d="M8627 953 c-31 -45 -34 -65 -11 -87 21 -22 49 -6 74 44 l20 40 -20 0
c-12 0 -24 9 -28 21 -8 19 -10 18 -35 -18z"/>
<path d="M7868 973 c7 -3 16 -2 19 1 4 3 -2 6 -13 5 -11 0 -14 -3 -6 -6z"/>
<path d="M8510 960 c0 -5 5 -10 11 -10 5 0 7 5 4 10 -3 6 -8 10 -11 10 -2 0
-4 -4 -4 -10z"/>
<path d="M8812 947 c-8 -9 -23 -15 -35 -14 -29 3 -47 -67 -24 -90 14 -15 18
-15 41 1 28 18 39 48 34 91 -3 25 -4 27 -16 12z"/>
<path d="M8860 926 c0 -22 3 -27 11 -19 8 8 8 16 0 30 -9 16 -10 14 -11 -11z"/>
<path d="M8979 933 c-13 -16 -12 -17 4 -4 16 13 21 21 13 21 -2 0 -10 -8 -17
-17z"/>
<path d="M8163 922 c-9 -14 -14 -15 -32 -4 -20 12 -21 10 -21 -36 0 -66 29
-92 64 -56 17 16 21 80 8 101 -6 9 -11 8 -19 -5z"/>
<path d="M7635 920 c3 -5 8 -10 11 -10 2 0 4 5 4 10 0 6 -5 10 -11 10 -5 0 -7
-4 -4 -10z"/>
<path d="M7443 864 c14 -39 24 -53 34 -49 8 3 19 5 24 5 16 0 -2 28 -22 33
-10 3 -23 16 -28 30 -5 14 -14 28 -19 31 -5 3 0 -19 11 -50z"/>
<path d="M7715 910 c-3 -5 3 -10 14 -10 12 0 21 5 21 10 0 6 -6 10 -14 10 -8
0 -18 -4 -21 -10z"/>
<path d="M8210 910 c0 -8 5 -22 10 -30 9 -13 10 -13 10 0 0 8 -5 22 -10 30 -9
13 -10 13 -10 0z"/>
<path d="M7590 886 c0 -14 -5 -28 -10 -31 -17 -10 -1 -25 26 -25 23 0 25 3 22
37 -2 27 -8 39 -20 41 -13 3 -18 -3 -18 -22z"/>
<path d="M8910 900 c0 -5 5 -10 10 -10 6 0 10 5 10 10 0 6 -4 10 -10 10 -5 0
-10 -4 -10 -10z"/>
<path d="M19715 886 c-27 -14 -51 -26 -52 -26 -2 0 -3 9 -3 20 0 16 -7 20 -30
20 l-30 0 0 -245 0 -245 29 0 29 0 4 163 c3 141 6 166 23 197 43 72 145 97
217 52 60 -37 68 -68 68 -251 l0 -161 36 0 36 0 -4 178 c-3 176 -3 179 -31
220 -43 65 -97 96 -176 100 -55 3 -74 -1 -116 -22z"/>
<path d="M20825 896 c-17 -7 -39 -21 -48 -30 -16 -16 -17 -16 -17 8 0 23 -4
26 -35 26 l-35 0 0 -245 0 -245 35 0 35 0 0 166 c0 152 2 170 21 201 58 93
207 89 264 -7 17 -31 20 -56 24 -197 l3 -163 29 0 29 0 0 148 c0 169 9 211 51
246 69 58 158 54 219 -9 l35 -36 3 -175 3 -174 35 0 34 0 0 156 c0 172 -8 215
-51 268 -81 97 -252 102 -331 8 l-26 -31 -28 31 c-59 62 -174 87 -249 54z"/>
<path d="M21807 896 c-167 -60 -222 -279 -103 -414 73 -83 219 -108 324 -56
125 62 176 219 113 343 -26 51 -100 114 -149 129 -52 16 -138 14 -185 -2z
m148 -57 c94 -26 151 -107 143 -206 -6 -65 -43 -117 -108 -150 -59 -30 -114
-29 -178 3 -68 34 -102 88 -102 163 0 28 6 66 14 84 16 40 77 95 114 103 15 3
32 7 37 9 19 6 40 5 80 -6z"/>
<path d="M7466 887 c3 -10 9 -15 12 -12 3 3 0 11 -7 18 -10 9 -11 8 -5 -6z"/>
<path d="M8329 883 c-13 -16 -12 -17 4 -4 9 7 17 15 17 17 0 8 -8 3 -21 -13z"/>
<path d="M8706 884 c-4 -9 -4 -19 -1 -22 2 -3 7 3 11 12 4 9 4 19 1 22 -2 3
-7 -3 -11 -12z"/>
<path d="M19420 655 l0 -245 35 0 35 0 0 245 0 245 -35 0 -35 0 0 -245z"/>
<path d="M20510 655 l0 -245 35 0 35 0 0 245 0 245 -35 0 -35 0 0 -245z"/>
<path d="M7800 875 c7 -9 15 -13 17 -11 7 7 -7 26 -19 26 -6 0 -6 -6 2 -15z"/>
<path d="M8067 870 c-3 -11 -1 -20 4 -20 5 0 9 9 9 20 0 11 -2 20 -4 20 -2 0
-6 -9 -9 -20z"/>
<path d="M8874 878 c-39 -62 -46 -103 -13 -82 18 11 41 76 31 86 -6 6 -13 5
-18 -4z"/>
<path d="M7655 869 c-11 -17 1 -21 15 -4 8 9 8 15 2 15 -6 0 -14 -5 -17 -11z"/>
<path d="M8357 866 c-4 -10 0 -12 14 -9 10 3 16 9 13 14 -8 13 -21 11 -27 -5z"/>
<path d="M7699 849 c-20 -20 -20 -28 3 -88 8 -23 9 -23 28 -6 18 16 21 17 45
1 l25 -16 0 45 c0 74 -55 110 -101 64z"/>
<path d="M7515 850 c3 -5 8 -10 11 -10 2 0 4 5 4 10 0 6 -5 10 -11 10 -5 0 -7
-4 -4 -10z"/>
<path d="M8430 851 c0 -5 5 -13 10 -16 6 -3 10 -2 10 4 0 5 -4 13 -10 16 -5 3
-10 2 -10 -4z"/>
<path d="M8221 809 c-17 -34 -18 -41 -5 -46 8 -3 18 -3 21 1 11 11 31 75 25
81 -12 12 -23 3 -41 -36z"/>
<path d="M7918 833 c7 -3 16 -2 19 1 4 3 -2 6 -13 5 -11 0 -14 -3 -6 -6z"/>
<path d="M8286 814 c-9 -24 -2 -26 12 -4 7 11 8 20 3 20 -5 0 -12 -7 -15 -16z"/>
<path d="M8336 809 c-26 -21 -32 -50 -20 -96 l6 -23 25 20 c19 15 30 17 43 10
21 -11 25 -8 35 38 5 25 3 38 -11 53 -22 25 -45 24 -78 -2z"/>
<path d="M8665 806 c-13 -20 -14 -28 -4 -44 10 -17 10 -25 -4 -46 -22 -33 -21
-39 8 -53 24 -11 25 -10 25 21 0 32 25 66 48 66 7 0 12 7 12 15 0 8 -9 15 -19
15 -12 0 -21 9 -25 25 -8 31 -21 32 -41 1z"/>
<path d="M7548 813 c6 -2 18 -2 25 0 6 3 1 5 -13 5 -14 0 -19 -2 -12 -5z"/>
<path d="M7837 813 c-4 -3 -7 -18 -7 -32 0 -24 1 -24 15 -5 22 29 15 61 -8 37z"/>
<path d="M8039 799 c-8 -16 -8 -27 2 -45 10 -20 10 -29 -1 -50 -13 -24 -12
-27 10 -45 34 -25 37 -24 32 11 -5 34 12 60 39 60 12 0 16 5 13 15 -4 8 -14
15 -24 15 -11 0 -22 12 -29 30 -12 35 -26 38 -42 9z"/>
<path d="M7630 802 c0 -5 9 -17 21 -28 21 -19 21 -19 8 9 -12 26 -29 37 -29
19z"/>
<path d="M7905 790 c-11 -4 -28 -22 -38 -39 -18 -30 -18 -31 1 -31 22 0 38
-16 43 -44 4 -17 7 -17 37 8 22 19 32 36 32 56 0 40 -37 64 -75 50z"/>
<path d="M8460 774 c-14 -36 -7 -41 14 -10 10 15 12 27 6 31 -6 3 -15 -6 -20
-21z"/>
<path d="M8770 789 c0 -5 5 -7 10 -4 6 3 10 8 10 11 0 2 -4 4 -10 4 -5 0 -10
-5 -10 -11z"/>
<path d="M7485 781 c-3 -5 -1 -12 4 -15 5 -3 11 1 15 9 6 16 -9 21 -19 6z"/>
<path d="M8519 771 c-13 -10 -32 -32 -41 -49 -17 -29 -17 -29 6 -25 23 5 42
-19 30 -38 -12 -20 14 -7 49 25 38 35 48 71 25 94 -17 17 -42 15 -69 -7z"/>
<path d="M7548 769 c-35 -20 -17 -79 32 -104 38 -20 49 -19 43 4 -3 12 3 24
16 33 20 14 20 15 -10 46 -33 33 -52 38 -81 21z"/>
<path d="M8140 770 c0 -5 5 -10 10 -10 6 0 10 5 10 10 0 6 -4 10 -10 10 -5 0
-10 -4 -10 -10z"/>
<path d="M8170 740 c-9 -6 -10 -10 -3 -10 6 0 15 5 18 10 8 12 4 12 -15 0z"/>
<path d="M8250 738 c0 -7 9 -19 20 -25 17 -12 18 -11 11 9 -9 25 -31 36 -31
16z"/>
<path d="M8630 735 c0 -8 2 -15 4 -15 2 0 6 7 10 15 3 8 1 15 -4 15 -6 0 -10
-7 -10 -15z"/>
<path d="M7743 724 c-7 -20 14 -67 27 -59 18 11 8 75 -11 75 -5 0 -12 -7 -16
-16z"/>
<path d="M8010 724 c0 -8 5 -12 10 -9 6 3 10 10 10 16 0 5 -4 9 -10 9 -5 0
-10 -7 -10 -16z"/>
<path d="M8786 719 c-26 -21 -51 -57 -44 -65 2 -2 24 17 48 41 45 46 43 61 -4
24z"/>
<path d="M8720 715 c-7 -9 -11 -18 -8 -20 3 -3 11 1 18 10 7 9 11 18 8 20 -3
3 -11 -1 -18 -10z"/>
<path d="M8107 703 c-4 -3 -7 -13 -7 -21 0 -12 3 -12 15 -2 8 7 15 16 15 21 0
11 -14 12 -23 2z"/>
<path d="M8166 689 c-18 -14 -26 -30 -26 -50 0 -25 6 -33 35 -45 46 -19 58
-18 50 5 -6 19 12 44 37 54 9 4 4 14 -15 31 -34 31 -46 32 -81 5z"/>
<path d="M8357 694 c-10 -10 -9 -62 2 -68 14 -9 33 21 29 45 -3 23 -19 35 -31
23z"/>
<path d="M7840 671 c-15 -29 -12 -41 10 -41 17 0 40 32 40 56 0 13 -41 1 -50
-15z"/>
<path d="M7650 667 c0 -16 32 -47 48 -47 17 0 15 26 -4 44 -19 20 -44 21 -44
3z"/>
<path d="M8464 666 c-30 -21 -38 -56 -13 -56 20 0 42 33 37 56 -3 13 -6 13
-24 0z"/>
<path d="M7966 655 c-15 -11 -16 -15 -5 -15 8 0 24 7 35 15 14 11 15 14 4 14
-8 0 -24 -6 -34 -14z"/>
<path d="M8574 654 c-17 -14 -17 -15 -1 -10 10 3 23 6 28 6 5 0 9 5 9 10 0 14
-13 12 -36 -6z"/>
<path d="M7540 630 c8 -5 24 -10 35 -10 17 0 17 2 5 10 -8 5 -24 10 -35 10
-17 0 -17 -2 -5 -10z"/>
<path d="M7766 615 c4 -8 7 -15 9 -15 2 0 5 7 9 15 3 9 0 15 -9 15 -9 0 -12
-6 -9 -15z"/>
<path d="M8045 620 c3 -5 8 -10 11 -10 2 0 4 5 4 10 0 6 -5 10 -11 10 -5 0 -7
-4 -4 -10z"/>
<path d="M8100 616 c0 -8 4 -17 9 -20 5 -4 7 3 4 14 -6 23 -13 26 -13 6z"/>
<path d="M8255 620 c-12 -20 6 -50 31 -50 28 0 32 21 8 44 -18 18 -30 20 -39
6z"/>
<path d="M8562 609 c-29 -9 -31 -12 -21 -30 8 -16 7 -26 -5 -44 -14 -21 -14
-24 0 -29 29 -11 50 -6 71 17 30 32 37 62 18 81 -18 18 -17 18 -63 5z"/>
<path d="M7736 601 c-3 -5 1 -11 9 -14 9 -4 12 -1 8 9 -6 16 -10 17 -17 5z"/>
<path d="M7800 600 c0 -5 5 -10 10 -10 6 0 10 5 10 10 0 6 -4 10 -10 10 -5 0
-10 -4 -10 -10z"/>
<path d="M7946 585 c16 -24 15 -27 -1 -45 -17 -19 -17 -20 9 -30 38 -14 50
-13 69 8 20 22 22 63 5 80 -7 7 -31 12 -55 12 l-43 0 16 -25z"/>
<path d="M7544 576 c-3 -8 0 -32 6 -55 9 -35 14 -41 38 -41 27 0 80 29 55 30
-21 0 -35 37 -23 60 10 18 8 20 -30 20 -26 0 -43 -5 -46 -14z"/>
<path d="M7880 575 c-15 -18 -5 -35 21 -35 24 0 37 29 18 41 -19 12 -25 11
-39 -6z"/>
<path d="M8360 580 c0 -5 5 -10 10 -10 6 0 10 5 10 10 0 6 -4 10 -10 10 -5 0
-10 -4 -10 -10z"/>
<path d="M8397 569 c-4 -16 -3 -18 9 -8 7 6 11 15 8 20 -8 13 -11 11 -17 -12z"/>
<path d="M7641 556 c-10 -12 -8 -17 10 -26 17 -10 24 -9 36 3 9 8 12 20 9 26
-10 16 -41 14 -55 -3z"/>
<path d="M7726 555 c4 -8 10 -12 15 -9 11 6 2 24 -11 24 -5 0 -7 -7 -4 -15z"/>
<path d="M7820 560 c0 -5 5 -10 10 -10 6 0 10 5 10 10 0 6 -4 10 -10 10 -5 0
-10 -4 -10 -10z"/>
<path d="M8071 554 c0 -11 3 -14 6 -6 3 7 2 16 -1 19 -3 4 -6 -2 -5 -13z"/>
<path d="M8326 555 c-3 -9 0 -15 9 -15 16 0 20 16 6 24 -5 3 -11 -1 -15 -9z"/>
<path d="M8470 555 c-10 -12 -10 -19 -2 -27 13 -13 66 17 57 32 -9 15 -41 12
-55 -5z"/>
<path d="M8135 550 c3 -5 15 -10 26 -10 10 0 19 5 19 10 0 6 -12 10 -26 10
-14 0 -23 -4 -19 -10z"/>
<path d="M8416 541 c-4 -7 -5 -15 -2 -18 9 -9 19 4 14 18 -4 11 -6 11 -12 0z"/>
<path d="M7745 520 c-3 -5 -1 -10 4 -10 6 0 11 5 11 10 0 6 -2 10 -4 10 -3 0
-8 -4 -11 -10z"/>
<path d="M7810 520 c0 -5 5 -10 10 -10 6 0 10 5 10 10 0 6 -4 10 -10 10 -5 0
-10 -4 -10 -10z"/>
<path d="M7780 506 c0 -9 5 -16 10 -16 6 0 10 4 10 9 0 6 -4 13 -10 16 -5 3
-10 -1 -10 -9z"/>
<path d="M8163 513 c-26 -5 -53 -39 -53 -65 0 -21 27 -48 48 -48 9 0 28 9 42
19 20 16 22 21 11 35 -8 9 -11 26 -7 41 7 26 4 27 -41 18z"/>
<path d="M8313 505 c0 -11 4 -12 14 -4 7 6 13 13 13 15 0 2 -6 4 -13 4 -8 0
-14 -7 -14 -15z"/>
<path d="M8090 499 c0 -5 5 -7 10 -4 6 3 10 8 10 11 0 2 -4 4 -10 4 -5 0 -10
-5 -10 -11z"/>
<path d="M8232 498 c-20 -20 -14 -30 15 -26 32 4 46 38 16 38 -11 0 -24 -5
-31 -12z"/>
<path d="M8395 490 c4 -6 11 -8 16 -5 14 9 11 15 -7 15 -8 0 -12 -5 -9 -10z"/>
<path d="M7706 469 c-14 -20 -12 -49 3 -49 13 0 31 24 31 41 0 28 -17 31 -34
8z"/>
<path d="M7850 473 c0 -20 18 -43 33 -43 4 0 7 12 5 27 -4 32 -38 46 -38 16z"/>
<path d="M8337 483 c-4 -3 -7 -11 -7 -17 0 -6 5 -5 12 2 6 6 9 14 7 17 -3 3
-9 2 -12 -2z"/>
<path d="M7966 459 c12 -13 20 -16 22 -9 3 7 -2 16 -9 21 -25 16 -32 9 -13
-12z"/>
<path d="M8053 465 c-7 -7 -17 -15 -24 -17 -7 -2 -13 -22 -15 -44 -5 -79 -33
-142 -56 -128 -5 3 -15 0 -23 -6 -12 -10 -18 -10 -31 1 -13 10 -17 10 -24 -2
-8 -12 6 -15 78 -20 48 -4 118 -7 156 -8 66 -1 68 0 53 17 -9 10 -15 31 -14
47 1 22 -3 30 -17 33 -11 2 -35 20 -55 39 -33 32 -34 36 -23 65 13 36 12 42
-5 23z"/>
<path d="M8365 470 c-3 -5 -1 -10 4 -10 6 0 11 5 11 10 0 6 -2 10 -4 10 -3 0
-8 -4 -11 -10z"/>
<path d="M8432 443 c4 -36 33 -39 33 -3 0 16 -6 26 -18 28 -15 3 -18 -2 -15
-25z"/>
<path d="M7618 449 c-19 -11 -24 -29 -8 -29 5 0 14 9 20 20 12 23 12 23 -12 9z"/>
<path d="M7784 446 c-8 -22 4 -68 16 -61 13 8 13 62 0 70 -6 3 -13 -1 -16 -9z"/>
<path d="M7910 439 c0 -12 -8 -23 -20 -26 -25 -7 -25 -10 0 -50 23 -39 43 -42
64 -11 21 30 20 50 -5 82 -25 31 -39 33 -39 5z"/>
<path d="M7657 427 c-23 -35 -22 -80 2 -101 24 -22 39 -14 57 30 18 43 18 42
-8 46 -14 2 -24 12 -28 27 l-6 24 -17 -26z"/>
<path d="M8490 440 c0 -5 5 -10 10 -10 6 0 10 5 10 10 0 6 -4 10 -10 10 -5 0
-10 -4 -10 -10z"/>
<path d="M8082 420 c0 -14 2 -19 5 -12 2 6 2 18 0 25 -3 6 -5 1 -5 -13z"/>
<path d="M8288 426 c-19 -18 -25 -56 -9 -56 16 0 33 29 29 51 -3 22 -4 22 -20
5z"/>
<path d="M7576 393 c9 -38 14 -42 14 -10 0 14 -5 29 -10 32 -7 4 -8 -3 -4 -22z"/>
<path d="M8354 396 c-6 -25 1 -46 15 -46 11 0 21 38 14 56 -8 22 -22 17 -29
-10z"/>
<path d="M7991 384 c0 -11 3 -14 6 -6 3 7 2 16 -1 19 -3 4 -6 -2 -5 -13z"/>
<path d="M8188 379 c-19 -11 -24 -29 -8 -29 5 0 14 9 20 20 12 23 12 23 -12 9z"/>
<path d="M8222 358 c-27 -43 -27 -59 -4 -87 14 -19 20 -20 34 -9 10 7 24 30
33 51 15 36 15 37 -5 37 -12 0 -24 9 -29 21 -7 21 -9 20 -29 -13z"/>
<path d="M7821 371 c-1 -9 -9 -12 -26 -9 -23 5 -25 3 -25 -36 0 -45 13 -66 41
-66 19 0 29 20 28 58 0 29 -17 76 -18 53z"/>
<path d="M8120 370 c0 -5 5 -10 11 -10 5 0 7 5 4 10 -3 6 -8 10 -11 10 -2 0
-4 -4 -4 -10z"/>
<path d="M7611 354 c0 -11 3 -14 6 -6 3 7 2 16 -1 19 -3 4 -6 -2 -5 -13z"/>
<path d="M7860 340 c0 -8 5 -22 10 -30 9 -13 10 -13 10 0 0 8 -5 22 -10 30 -9
13 -10 13 -10 0z"/>
<path d="M7602 310 c9 -26 13 -30 16 -16 2 10 -3 26 -12 35 -15 15 -16 13 -4
-19z"/>
<path d="M7731 314 c0 -11 3 -14 6 -6 3 7 2 16 -1 19 -3 4 -6 -2 -5 -13z"/>
<path d="M7966 313 c-6 -14 -5 -15 5 -6 7 7 10 15 7 18 -3 3 -9 -2 -12 -12z"/>
<path d="M8337 323 c-4 -3 -7 -11 -7 -17 0 -6 5 -5 12 2 6 6 9 14 7 17 -3 3
-9 2 -12 -2z"/>
<path d="M7640 290 c0 -5 5 -10 11 -10 5 0 7 5 4 10 -3 6 -8 10 -11 10 -2 0
-4 -4 -4 -10z"/>
<path d="M8171 284 c0 -11 3 -14 6 -6 3 7 2 16 -1 19 -3 4 -6 -2 -5 -13z"/>
<path d="M7720 266 c0 -9 5 -16 10 -16 6 0 10 4 10 9 0 6 -4 13 -10 16 -5 3
-10 -1 -10 -9z"/>
</g>
</svg>
